<?xml version="1.0" standalone="no"?>
<!DOCTYPE svg PUBLIC "-//W3C//DTD SVG 20010904//EN"
 "http://www.w3.org/TR/2001/REC-SVG-20010904/DTD/svg10.dtd">
<svg version="1.0" xmlns="http://www.w3.org/2000/svg"
 width="512.000000pt" height="512.000000pt" viewBox="0 0 512.000000 512.000000"
 preserveAspectRatio="xMidYMid meet">
<metadata>
Created by potrace 1.14, written by Peter Selinger 2001-2017
</metadata>
<g transform="translate(0.000000,512.000000) scale(0.100000,-0.100000)"
fill="#000000" stroke="none">
<path d="M2475 4709 c-27 -5 -70 -11 -95 -15 -25 -3 -48 -8 -51 -10 -3 -2 -21
-6 -40 -9 -139 -24 -372 -124 -534 -229 -298 -194 -519 -469 -655 -816 -18
-47 -36 -89 -40 -95 -4 -5 -50 -93 -102 -195 -53 -102 -116 -223 -140 -270
-25 -47 -91 -175 -148 -285 -170 -330 -152 -306 -235 -320 -78 -13 -197 -79
-267 -150 -72 -72 -137 -188 -157 -280 -7 -32 -10 -195 -8 -455 3 -383 5 -409
25 -475 65 -210 220 -383 411 -460 184 -75 685 -178 1066 -219 259 -28 1270
-29 1445 -2 14 2 54 7 90 11 54 5 137 16 300 40 197 29 589 124 701 169 167
68 323 227 387 396 40 102 45 137 49 348 l5 212 -41 0 -41 0 0 80 0 80 41 0
42 0 -6 137 c-7 196 -49 302 -162 416 -82 82 -227 157 -305 157 -43 0 -36 -12
-261 443 -22 43 -39 80 -39 82 0 3 21 -7 46 -20 26 -14 55 -25 66 -25 16 0 17
-5 12 -40 -6 -36 -4 -40 19 -45 14 -4 33 -6 43 -5 33 4 39 1 76 -35 144 -135
369 -137 529 -5 40 33 54 39 114 45 161 15 303 130 346 280 5 16 12 57 15 90
5 49 13 67 44 105 72 86 101 173 96 290 -3 80 -44 177 -100 236 -20 21 -36 41
-36 44 -6 103 -13 137 -39 194 -30 67 -113 161 -161 182 -84 38 -107 45 -170
50 -62 6 -75 11 -108 42 -20 20 -66 49 -102 66 -59 28 -74 31 -160 30 -113 0
-175 -23 -257 -91 -72 -60 -87 -59 -180 17 -7 6 -54 38 -105 71 -171 111 -349
187 -529 225 -84 18 -606 28 -694 13z m1108 -1395 c-7 -20 -10 -18 -15 11 -4
20 -2 23 8 14 7 -6 10 -17 7 -25z"/>
</g>
</svg>
