<svg xmlns="http://www.w3.org/2000/svg" version="1.1" xmlns:xlink="http://www.w3.org/1999/xlink" xmlns:svgjs="http://svgjs.com/svgjs" width="512" height="512" x="0" y="0" viewBox="0 0 64 64" style="enable-background:new 0 0 512 512" xml:space="preserve" class=""><g><g xmlns="http://www.w3.org/2000/svg" id="Layer_31" data-name="Layer 31"><path d="m22 9h-4l-3-6q5-4 10 0z" fill="#f96464" data-original="#f96464"></path><path d="m18.139 1.278a9.326 9.326 0 0 0 -3.139 1.722l3 6h4l2-4h-1.528a4 4 0 0 1 -3.578-2.211z" fill="#ea3f3f" data-original="#ea3f3f"></path><rect fill="#f96464" height="34" rx="13" width="26" x="7" y="9" data-original="#f96464"></rect><path d="m28.479 15.5a.5.5 0 0 1 -.385-.181 10.553 10.553 0 0 0 -2.367-2.119.5.5 0 0 1 .546-.837 11.543 11.543 0 0 1 2.591 2.315.5.5 0 0 1 -.385.819z" fill="#ffffff" data-original="#ffffff"></path><path d="m31 32v-.362a10 10 0 0 0 -7.369-9.648l-5.922-1.615c-3.976-1.084-3.939-6.965.113-7.722a3.563 3.563 0 0 1 .9-.058 21.052 21.052 0 0 0 6.172-.261 1.475 1.475 0 0 0 1.106-1.415 1.414 1.414 0 0 0 -.095-.49 12.781 12.781 0 0 0 -2.052-.848 18.176 18.176 0 0 1 -5.574.32 12.961 12.961 0 0 1 3.221-.808 12.631 12.631 0 0 0 -5.938.7c-.158.058-.32.109-.475.174a13.014 13.014 0 0 0 -7.831 9.5 13.014 13.014 0 0 0 -.256 2.533v8a12.95 12.95 0 0 0 14.5 12.907 13 13 0 0 1 -11.5-12.907v-8.706l.03-.023 12.006 3.159a8 8 0 0 1 5.964 7.737v.833a9.956 9.956 0 0 0 1.722 5.61 13.013 13.013 0 0 0 2.069-3.16 7.948 7.948 0 0 1 -.791-3.45z" fill="#ea3f3f" data-original="#ea3f3f"></path><path d="m24.9 10.334a18.344 18.344 0 0 1 -9.8 0 1.475 1.475 0 0 1 -1.1-1.415 1.458 1.458 0 0 1 1.808-1.407 18.24 18.24 0 0 0 8.384 0 1.458 1.458 0 0 1 1.808 1.407 1.475 1.475 0 0 1 -1.1 1.415z" fill="#f8c460" data-original="#f8c460"></path><path d="m18.1 10.334a1.475 1.475 0 0 1 -1.1-1.415 1.424 1.424 0 0 1 .515-1.1c-.569-.078-1.138-.177-1.707-.309a1.458 1.458 0 0 0 -1.808 1.409 1.475 1.475 0 0 0 1.1 1.415 18.376 18.376 0 0 0 6.4.6 18.86 18.86 0 0 1 -3.4-.6z" fill="#faaf42" data-original="#faaf42"></path><rect fill="#72aa65" height="16" rx="2" width="14" x="27" y="27" data-original="#72aa65"></rect><path d="m29 23h2a3 3 0 0 1 3 3v1a0 0 0 0 1 0 0h-2a3 3 0 0 1 -3-3v-1a0 0 0 0 1 0 0z" fill="#f8c460" data-original="#f8c460"></path><path d="m37 23h2a0 0 0 0 1 0 0v1a3 3 0 0 1 -3 3h-2a0 0 0 0 1 0 0v-1a3 3 0 0 1 3-3z" fill="#f8c460" transform="matrix(-1 0 0 -1 73 50)" data-original="#f8c460"></path><rect fill="#72aa65" height="8" rx="2" width="10" x="38" y="35" data-original="#72aa65"></rect><path d="m45 40a4 4 0 0 1 -4-4v-1h-1a2 2 0 0 0 -2 2v4a2 2 0 0 0 2 2h6a2 2 0 0 0 2-2v-1z" fill="#599149" data-original="#599149"></path><path d="m38 31h2a3 3 0 0 1 3 3v1a0 0 0 0 1 0 0h-2a3 3 0 0 1 -3-3v-1a0 0 0 0 1 0 0z" fill="#f8c460" data-original="#f8c460"></path><path d="m46 31h2a0 0 0 0 1 0 0v1a3 3 0 0 1 -3 3h-2a0 0 0 0 1 0 0v-1a3 3 0 0 1 3-3z" fill="#f8c460" transform="matrix(-1 0 0 -1 91 66)" data-original="#f8c460"></path><rect fill="#72aa65" height="8" rx="2" width="10" x="19" y="22" data-original="#72aa65"></rect><path d="m19 18h2a3 3 0 0 1 3 3v1a0 0 0 0 1 0 0h-2a3 3 0 0 1 -3-3v-1a0 0 0 0 1 0 0z" fill="#f8c460" data-original="#f8c460"></path><path d="m21 19v-1h-2v1a3 3 0 0 0 3 3h2a3 3 0 0 1 -3-3z" fill="#faaf42" data-original="#faaf42"></path><path d="m23 22h2v8h-2z" fill="#f8c460" data-original="#f8c460"></path><path d="m27 18h2a0 0 0 0 1 0 0v1a3 3 0 0 1 -3 3h-2a0 0 0 0 1 0 0v-1a3 3 0 0 1 3-3z" fill="#f8c460" transform="matrix(-1 0 0 -1 53 40)" data-original="#f8c460"></path><g fill="#faaf42"><path d="m29 18h-2a3 3 0 0 0 -3 3v1h2v-1a3 3 0 0 1 3-3z" fill="#faaf42" data-original="#faaf42"></path><path d="m31 24v-1h-2v1a3 3 0 0 0 3 3h2a3 3 0 0 1 -3-3z" fill="#faaf42" data-original="#faaf42"></path><path d="m39 23h-2a3 3 0 0 0 -3 3v1h2v-1a3 3 0 0 1 3-3z" fill="#faaf42" data-original="#faaf42"></path><path d="m40 32v-1h-2v1a3 3 0 0 0 3 3h2a3 3 0 0 1 -3-3z" fill="#faaf42" data-original="#faaf42"></path><path d="m48 31h-2a3 3 0 0 0 -3 3v1h2v-1a3 3 0 0 1 3-3z" fill="#faaf42" data-original="#faaf42"></path></g><path d="m55.01 60.01-4.01-.013-6-7.997 4.01.013z" fill="#f8c460" data-original="#f8c460"></path><path d="m48.656 56.873a11.929 11.929 0 0 0 3.289-.948l-2.935-3.912-4.01-.013z" fill="#faaf42" data-original="#faaf42"></path><path d="m24.631 22.99-3.631-.99a2 2 0 0 0 -2 2v.368l4.036 1.062a8 8 0 0 1 5.128 4.191 1.994 1.994 0 0 0 .836-1.621v-2.5a9.982 9.982 0 0 0 -4.369-2.51z" fill="#599149" data-original="#599149"></path><path d="m23 25.421.036.009a7.95 7.95 0 0 1 1.964.823v-3.136c-.125-.039-.242-.092-.369-.127l-1.631-.445z" fill="#faaf42" data-original="#faaf42"></path><path d="m33 27h2v16h-2z" fill="#f8c460" data-original="#f8c460"></path><path d="m8.99 60.01 4.01-.013 6-7.997-4.01.013z" fill="#f8c460" data-original="#f8c460"></path><path d="m33 33v-.362a9.968 9.968 0 0 0 -1.75-5.638h-2.25a1.986 1.986 0 0 0 -1.339.523 7.987 7.987 0 0 1 2.339 5.644v.833a9.99 9.99 0 0 0 5.663 9h3.337a2 2 0 0 0 2-2 8 8 0 0 1 -8-8z" fill="#599149" data-original="#599149"></path><path d="m33 41.1a10.049 10.049 0 0 0 2 1.523v-4.344a7.959 7.959 0 0 1 -2-5.279z" fill="#faaf42" data-original="#faaf42"></path><path d="m28 35.167v.833a10 10 0 0 0 10 10h9a7 7 0 0 0 7-7 5 5 0 0 1 5-5 2 2 0 0 0 2-2v-1h-2a8 8 0 0 0 -8 8 4 4 0 0 1 -4 4h-8a8 8 0 0 1 -8-8v-.362a10 10 0 0 0 -7.369-9.648l-13.6-3.708a8 8 0 0 0 -2.102-.282h-6.929a3 3 0 0 0 3 3h3.965a8.043 8.043 0 0 1 2.035.263l12.035 3.168a8 8 0 0 1 5.965 7.736z" fill="#f8c460" data-original="#f8c460"></path><path d="m3 24 1.384 4.845a15.983 15.983 0 0 1 .616 4.396v5.759a16 16 0 0 0 16 16h26a12 12 0 0 0 12-12v-9a5 5 0 0 0 -5 5 7 7 0 0 1 -7 7h-9a10 10 0 0 1 -10-10v-.833a8 8 0 0 0 -5.964-7.736l-12.036-3.168a8.043 8.043 0 0 0 -2.035-.263z" fill="#f96464" data-original="#f96464"></path><path d="m12.909 54.787a15.9 15.9 0 0 0 2.977 1.363l3.114-4.15-4.01.013z" fill="#faaf42" data-original="#faaf42"></path><path d="m50 52h-22a20 20 0 0 1 -20-20v-1.8a3.415 3.415 0 0 1 4.233-3.41c3.764.965 8.3 2.144 8.3 2.144a8 8 0 0 1 5.967 7.733v.833a10 10 0 0 0 10 10h9a6.982 6.982 0 0 0 5.637-2.863 6.957 6.957 0 0 1 -4.137 1.363h-9a10 10 0 0 1 -10-10v-.833a8 8 0 0 0 -5.964-7.737l-12.036-3.167a8.037 8.037 0 0 0 -2.035-.263h-4.965l1.384 4.845a15.981 15.981 0 0 1 .616 4.395v5.76a16 16 0 0 0 16 16h26a11.98 11.98 0 0 0 9.847-5.153 11.93 11.93 0 0 1 -6.847 2.153z" fill="#ea3f3f" data-original="#ea3f3f"></path><path d="m60 53.5a6.5 6.5 0 0 1 -6.5 6.5h-47a2.5 2.5 0 0 1 -2.5-2.5 1.5 1.5 0 0 0 -1.5-1.5 1.5 1.5 0 0 0 -1.5 1.5 5.5 5.5 0 0 0 5.5 5.5h47a9.5 9.5 0 0 0 9.5-9.5 1.5 1.5 0 0 0 -1.5-1.5 1.5 1.5 0 0 0 -1.5 1.5z" fill="#f8c460" data-original="#f8c460"></path><path d="m42 35h2v8h-2z" fill="#f8c460" data-original="#f8c460"></path><path d="m42 38.62v4.38h2v-3.141a3.974 3.974 0 0 1 -2-1.239z" fill="#faaf42" data-original="#faaf42"></path></g></g></svg>