<svg xmlns="http://www.w3.org/2000/svg" viewBox="0 0 112.479 116.661">
   <path
      d="M236.863 294.023c.444-.107.28-.194-.364-.194-.4 0-.694.035-.694.084 0 .093-.378.068-.626-.041-.093-.04-.26-.034-.394.017-.129.049-.283.057-.346.017-.063-.039-.564-.07-1.113-.07-.55 0-1.046-.031-1.102-.068-.095-.062-1.494-.228-2.79-.33-.315-.026-.572-.081-.572-.124s-.169-.078-.376-.078c-.206 0-.4-.038-.428-.085-.029-.046-.149-.084-.267-.084-.118 0-.323-.077-.455-.171-.132-.094-.272-.165-.31-.157-.161.035-.958-.124-.958-.191 0-.04-.133-.074-.296-.074-.163 0-.296-.038-.296-.085 0-.046-.093-.084-.207-.084-.114 0-.23-.039-.26-.086-.03-.048-.088-.065-.13-.039-.042.026-.22-.029-.396-.122a7.243 7.243 0 0 0-.595-.278c-.151-.06-.275-.138-.275-.173 0-.036-.057-.064-.127-.064s-.127-.038-.127-.085c0-.047-.048-.085-.107-.085-.058 0-.156-.08-.217-.177-.061-.098-.13-.159-.154-.135-.079.079-.462-.175-.917-.61-.25-.238-.49-.432-.536-.432-.045 0-.172-.114-.282-.254-.11-.139-.267-.253-.348-.254-.082 0-.148-.036-.148-.08 0-.043-.067-.1-.149-.126-.081-.026-.27-.162-.418-.302-.15-.14-.303-.254-.342-.254-.04 0-.26-.195-.492-.434-.23-.238-.572-.504-.758-.591a1.983 1.983 0 0 1-.572-.434c-.532-.633-.656-.818-.656-.98 0-.095-.048-.188-.106-.208-.082-.027-.08-.066.01-.176.133-.16.44-.186.578-.049.066.067.108.065.152-.006.036-.058-.01-.116-.117-.144-.098-.026-.178-.08-.178-.121 0-.041-.17-.075-.376-.075-.207 0-.4-.038-.429-.085-.028-.046-.16-.084-.29-.084-.132 0-.287-.058-.345-.127a.394.394 0 0 0-.265-.127c-.192 0-.486-.157-.675-.36-.076-.082-.2-.148-.276-.148-.076 0-.138-.038-.138-.083 0-.046-.105-.11-.233-.141a2.557 2.557 0 0 1-.51-.214c-.342-.19-.358-.191-.359-.007 0 .082-.114.239-.254.349-.139.11-.253.236-.253.28 0 .045-.054.136-.12.203-.14.14-1.026.169-1.108.036-.074-.12-.444-.105-.49.021-.031.085-.061.085-.151 0a.515.515 0 0 0-.307-.105c-.107 0-.195-.039-.195-.085 0-.047-.093-.085-.206-.085-.114 0-.23-.038-.26-.085-.028-.046-.165-.084-.304-.084-.303 0-1.14-.425-1.419-.72-.11-.116-.264-.212-.343-.212a.4.4 0 0 1-.245-.101c-.056-.056-.101-.074-.101-.04 0 .035-.084-.014-.186-.11a.723.723 0 0 0-.423-.172c-.13 0-.238-.038-.238-.085 0-.046-.042-.084-.093-.084s-.2-.115-.33-.254c-.13-.14-.276-.254-.324-.254-.117 0-.777-.642-.777-.756 0-.05-.035-.091-.077-.091-.084 0-.685-.56-.685-.637 0-.141-.656-.802-.796-.802-.074 0-.135-.056-.135-.123 0-.068-.096-.219-.212-.335-.116-.117-.212-.283-.212-.37 0-.086-.114-.266-.254-.4s-.254-.312-.254-.397c0-.084-.034-.153-.077-.153-.042 0-.103-.153-.134-.339-.032-.186-.092-.339-.135-.339-.042 0-.077-.076-.077-.169 0-.093-.038-.17-.085-.17-.046 0-.084-.056-.084-.126s-.038-.127-.085-.127c-.047 0-.085-.07-.085-.155 0-.084-.07-.3-.158-.478-.087-.179-.139-.398-.115-.487.026-.102-.024-.207-.139-.287-.124-.087-.18-.217-.18-.413 0-.158-.038-.31-.085-.34-.047-.028-.085-.353-.085-.722 0-.664-.003-.672-.233-.72a3.118 3.118 0 0 1-.427-.13c-.107-.043-.363-.078-.569-.078-.335 0-.932-.238-1.057-.42-.023-.035-.237-.085-.474-.112a2.376 2.376 0 0 1-.744-.225c-.17-.096-.384-.175-.473-.175-.089 0-.185-.038-.214-.084-.029-.047-.126-.085-.216-.085s-.165-.03-.165-.066c0-.085-.864-.477-1.333-.605-.198-.054-.36-.134-.36-.18 0-.044-.056-.08-.123-.08-.125 0-.554-.381-.554-.492 0-.084-.416-.524-.495-.524-.107 0-1.114-1.003-1.114-1.11 0-.054-.069-.16-.152-.235-.155-.14-.61-1.014-.61-1.172 0-.048-.058-.135-.129-.194a.257.257 0 0 1-.079-.265c.027-.086.009-.157-.04-.157-.05 0-.09-.051-.09-.114s-.077-.183-.17-.267a.596.596 0 0 1-.17-.432c0-.18-.058-.319-.165-.394-.09-.064-.166-.19-.168-.28-.006-.323-.11-.801-.184-.847-.041-.026-.075-.178-.075-.338 0-.16-.038-.291-.085-.291-.046 0-.085-.13-.085-.287a1.31 1.31 0 0 0-.114-.507c-.085-.165-.107-.553-.084-1.555a38.7 38.7 0 0 1 .059-1.627c.042-.409-.019-.58-.23-.653a.701.701 0 0 0-.232-.049c-.029.007-.16-.1-.291-.237-.132-.138-.276-.25-.32-.25-.087 0-.48-.429-.48-.523 0-.032-.125-.19-.276-.35-.307-.327-.487-.817-.487-1.322 0-.184-.038-.359-.085-.387-.093-.058-.12-2.18-.028-2.272.031-.031.07-.29.085-.577.016-.287.07-.57.12-.631a.314.314 0 0 0 .063-.236c-.021-.097-.104-.07-.367.122-.186.135-.395.27-.465.298-.388.157-.57.257-.741.407-.105.091-.19.141-.19.11 0-.03-.14.024-.312.12-.171.096-.429.175-.572.175-.143 0-.467-.004-.72-.008-.253-.004-.499.03-.546.078-.117.117-.673.108-.793-.013-.054-.054-.271-.095-.483-.092-.211.003-.405-.029-.432-.071-.026-.042-.121-.077-.212-.077-.09 0-.164-.04-.164-.088 0-.055-.148-.07-.394-.04-.308.037-.427.014-.546-.103-.28-.276-.406-.362-.533-.362-.069 0-.15-.038-.178-.084-.029-.047-.139-.085-.244-.085-.106 0-.281-.095-.39-.212-.11-.116-.243-.211-.297-.211-.053 0-.18-.096-.28-.212-.102-.117-.223-.212-.27-.212-.047 0-.085-.04-.085-.091 0-.05-.314-.402-.699-.782-.384-.38-.702-.71-.707-.734-.088-.413-.153-.594-.213-.594-.041 0-.074-.074-.074-.165 0-.09-.039-.187-.085-.216-.047-.029-.085-.157-.085-.285 0-.127-.047-.28-.105-.337-.068-.067-.103-.341-.098-.758l.02-1.738c.006-.597.039-1.13.072-1.183.033-.054.074-.249.091-.434.018-.184.105-.439.195-.565.09-.126.164-.271.164-.322 0-.051.038-.093.084-.093.047 0 .085-.053.085-.117s.057-.164.127-.222a.372.372 0 0 0 .127-.246c0-.077.076-.195.17-.262.093-.067.169-.162.169-.21 0-.089 1.294-1.399 1.382-1.399.026 0 .173-.117.327-.26a2.62 2.62 0 0 1 .598-.401c.175-.077.317-.17.317-.205 0-.036.053-.065.117-.065s.166-.06.226-.132c.242-.29.7-.4 1.844-.44 1.274-.046 1.293-.057 1.22-.752-.02-.193.006-.429.057-.524.057-.106.062-.193.013-.223-.095-.059-.017-1.237.09-1.354.04-.044.074-.204.074-.354 0-.151.038-.298.085-.327.156-.097.087-.278-.127-.331-.117-.03-.212-.09-.212-.136 0-.046-.074-.084-.164-.084-.09 0-.188-.038-.217-.084-.029-.047-.12-.085-.202-.085-.165 0-1.005-.847-1.181-1.193a3.299 3.299 0 0 0-.355-.503c-.133-.156-.225-.31-.205-.342.02-.033-.021-.107-.092-.166-.07-.058-.108-.168-.084-.245.026-.08-.027-.19-.125-.26a.436.436 0 0 1-.172-.294.657.657 0 0 0-.12-.328c-.066-.086-.1-.206-.077-.267.023-.06.002-.135-.048-.166-.118-.073-.116-.494.003-.613.068-.068.064-.175-.015-.393-.085-.235-.087-.37-.009-.632.055-.183.1-.53.1-.773 0-.242.04-.516.09-.608.05-.093.09-.413.09-.713 0-.299.035-.566.079-.593.044-.027.08-.159.08-.293 0-.134.03-.262.066-.285.036-.022.074-.263.084-.534.023-.653.1-1.116.195-1.175.043-.027.078-.237.078-.467 0-.231.033-.486.074-.567.121-.24.264-.74.264-.922 0-.094.028-.198.063-.233.034-.034.07-.276.081-.537.01-.261.046-.535.079-.608.032-.073.066-.152.074-.175l.064-.17c.027-.07.073-.241.103-.38.239-1.13.311-1.395.393-1.446.041-.026.075-.133.075-.239 0-.106.026-.218.057-.25.031-.03.066-.142.077-.246l.082-.804c.034-.338.095-.614.135-.614.04 0 .072-.131.072-.291 0-.16.038-.315.085-.344.047-.029.085-.145.085-.259 0-.114.038-.207.084-.207.047 0 .085-.13.085-.291 0-.16.038-.315.085-.344.046-.028.085-.212.085-.407 0-.195.058-.542.127-.77.07-.229.126-.525.126-.658s.044-.327.098-.43c.22-.425.241-.498.241-.819 0-.184.042-.36.093-.392.054-.034.072-.164.043-.31a.981.981 0 0 1 .068-.52c.065-.146.142-.512.17-.812.028-.3.088-.585.135-.631.046-.046.084-.208.084-.359 0-.15.038-.298.084-.326.047-.03.085-.184.085-.344 0-.16.038-.291.085-.291.046 0 .084-.134.084-.297 0-.163.03-.296.064-.296.035 0 .07-.19.076-.422.012-.384.18-1.099.376-1.593a1.31 1.31 0 0 0 .077-.402c0-.114.038-.208.085-.208.046 0 .085-.188.085-.418 0-.23.038-.442.084-.47.047-.03.085-.14.085-.246 0-.105.026-.219.059-.251.066-.066.089-.17.166-.755.029-.223.086-.425.126-.45.04-.024.072-.211.072-.415s.038-.395.085-.424c.047-.028.085-.164.085-.301 0-.137.034-.249.076-.249.042 0 .096-.162.12-.36.044-.347.4-1.836.503-2.095.051-.13.121-.488.199-1.016.024-.163.076-.373.116-.466.04-.093.094-.35.12-.57.026-.22.083-.467.127-.55.043-.082.127-.428.185-.768.059-.34.138-.637.177-.66.038-.025.07-.192.07-.373 0-.18.038-.352.085-.381.046-.029.084-.14.084-.248 0-.354.25-.933.496-1.149.133-.116.348-.374.477-.572.13-.197.268-.36.309-.36.04 0 .073-.043.073-.096 0-.053.114-.206.254-.34.14-.133.254-.274.254-.312 0-.038.095-.12.212-.183.116-.062.211-.145.211-.183 0-.039.056-.07.125-.07.068 0 .37-.242.67-.538.45-.444 1.027-.842 1.242-.857.075-.005.588-.451.588-.511 0-.126.257-.296.447-.296a.568.568 0 0 0 .361-.173c.086-.096.283-.233.436-.306.154-.073.28-.167.28-.208 0-.041.072-.075.159-.075a.384.384 0 0 0 .26-.122c.055-.067.217-.147.36-.178.148-.033.275-.123.299-.214.023-.087.123-.181.222-.21.1-.028.31-.11.468-.18.157-.072.338-.138.403-.147.064-.01.243-.145.396-.3.196-.2.375-.293.604-.316.178-.019.404-.09.5-.157a.701.701 0 0 1 .327-.123c.083 0 .15-.032.15-.072 0-.098.968-.563 1.039-.498.011.01.14-.067.287-.171.147-.105.328-.19.402-.19.075 0 .135-.039.135-.085 0-.047.048-.086.106-.087.058-.001.201-.076.318-.167.116-.092.278-.167.36-.168.081 0 .148-.04.148-.086 0-.047.092-.085.205-.085a.539.539 0 0 0 .333-.127.444.444 0 0 1 .26-.127c.073 0 .133-.029.133-.064s.124-.117.275-.183a3.5 3.5 0 0 0 .508-.28c.127-.089.27-.137.317-.108.047.029.085.012.085-.037 0-.05.067-.09.149-.092.081-.001.243-.076.36-.167.116-.092.29-.167.388-.168a.536.536 0 0 0 .33-.17c.083-.091.184-.146.224-.121.04.025.073.005.073-.044 0-.05.145-.09.322-.09.177 0 .358-.035.402-.077.161-.153.725-.431.875-.431.084 0 .269-.058.41-.128.142-.07.414-.138.606-.149.191-.01.348-.039.348-.062 0-.024.125-.093.276-.155.151-.061.422-.185.6-.275.18-.09.391-.162.47-.162a.4.4 0 0 0 .246-.102c.056-.056.102-.072.102-.037 0 .036.11-.013.246-.11.135-.096.342-.175.459-.175.117 0 .225-.028.24-.063.05-.11.831-.475.89-.415.032.03.137-.014.233-.099.097-.085.347-.207.557-.27.21-.063.419-.141.465-.173.086-.06.179-.08 1.101-.25.28-.051.544-.13.588-.174.045-.044.169-.08.276-.08.107 0 .194-.038.194-.085 0-.046.093-.084.207-.084.114 0 .23-.038.26-.085.028-.047.202-.085.385-.085.184 0 .334-.034.334-.076 0-.042.18-.096.402-.12.52-.056.732-.1 1.249-.262.233-.073.526-.133.65-.133.126-.001.252-.04.281-.086.029-.047.22-.085.423-.085.204 0 .392-.034.418-.075.026-.041.17-.094.322-.118a5.52 5.52 0 0 0 .488-.098 7.28 7.28 0 0 1 .637-.12c.234-.035.473-.092.53-.128.227-.14 3.707-.266 3.787-.137.067.11.524.108.592 0 .063-.103.438-.114.499-.015.041.067.796.25 1.067.26.557.019 1.415.128 1.493.19.053.042.21.068.351.057.14-.01.313.028.384.087.077.064.148.074.178.024.049-.079.414.003.747.17.08.04.3.073.487.073.186 0 .34.038.34.085 0 .046.15.084.333.084.184 0 .359.04.39.09.03.05.11.07.177.045.146-.056.971.106 1.085.213.044.042.168.076.276.076a.97.97 0 0 1 .364.084c.093.047.25.126.348.177.099.05.386.113.638.139.251.026.478.08.502.12.025.04.174.072.331.072.158 0 .31.038.34.085.028.047.154.085.28.086.303.002.817.186 1.013.363a.58.58 0 0 0 .321.144c.09 0 .272.058.406.127.133.07.327.127.431.127.104 0 .258.076.342.169a.55.55 0 0 0 .35.17c.107 0 .326.073.486.163.16.09.311.142.336.117.06-.058.564.163.564.248 0 .035.112.064.249.064s.272.038.301.085c.029.046.109.084.178.084.069 0 .235.082.37.18.158.118.32.167.462.14.12-.023.218-.014.218.02 0 .036.066.085.148.11.081.027.243.103.36.17.116.068.392.21.614.316.22.105.402.222.402.26 0 .038.057.047.127.02s.127-.013.127.03c0 .042.133.13.296.194.163.064.296.147.296.185 0 .038.077.069.17.069.093 0 .17.038.17.084 0 .047.066.085.148.085.082 0 .199.08.26.178.06.097.131.157.157.131.04-.04 1.355.595 1.466.708.023.024.188.119.366.212.177.092.389.225.47.295.196.17.436.322.66.419a.647.647 0 0 1 .254.194c.105.171.585.488.74.488.074 0 .135.032.135.071 0 .04.071.107.158.149.226.108.663.47 2.284 1.883.232.203.558.461.725.575.167.114.304.243.304.288 0 .045.055.082.122.082s.305.209.529.464c.224.256.446.466.492.468.047.002.199.135.338.297.14.162.32.295.402.295.082 0 .15.036.15.08 0 .043.14.09.31.105.244.02.342.081.45.278.077.138.218.272.314.296.271.07 1.032.648 1.366 1.04.11.128.246.233.304.233.128 0 .98.88.98 1.011 0 .052.053.115.117.14.064.024.193.204.287.399.205.426.548 1.182.707 1.561.064.152.145.275.18.275s.064.058.064.127c0 .07.038.127.085.127.046 0 .084.097.084.216 0 .118.073.293.162.388.21.225.305.724.169.888-.078.094-.08.148-.005.222a.381.381 0 0 1 .098.234c0 .176.193.59.275.592.035 0 .063.172.063.381 0 .21.034.381.075.381.075 0 .163 1.012.207 2.373.012.396.045.758.07.804.027.046.055.537.062 1.092.007.555.052 1.056.1 1.114.085.103.065 3.635-.026 4.27-.127.895-.191 1.169-.332 1.42a1.361 1.361 0 0 0-.156.556c0 .152-.068.351-.152.442a.989.989 0 0 0-.265.502.845.845 0 0 1-.168.254 1.937 1.937 0 0 0-.27.445c-.064.151-.141.275-.17.275-.03 0-.102.114-.16.254-.058.14-.145.254-.194.254-.048 0-.062.026-.03.059.033.032-.155.276-.418.54-.533.54-.527.503-.296 1.762.091.5.137.578.611 1.037.381.37.574.497.753.497.133 0 .265.038.295.086a.1.1 0 0 0 .135.035c.046-.028.14-.004.21.054.093.078.418.091 1.26.053 1.075-.048 1.165-.066 1.753-.351.341-.165.73-.391.864-.503.233-.194.244-.39.022-.39-.152 0-.56.2-.562.275 0 .035-.059.063-.13.063-.072 0-.222.06-.333.134a.778.778 0 0 1-.442.105c-.477-.054-.29-.652.206-.66.105 0 .19-.04.19-.087 0-.046.058-.084.128-.084s.127-.035.127-.077c0-.125.831-.285 1.268-.243l.407.04.047-.29c.075-.46-.165-.849-.58-.934-.316-.065-.791.024-.943.176-.032.032-.144.058-.249.058-.104 0-.203.028-.218.063-.045.1-.548.36-.698.36-.074 0-.135.033-.135.074 0 .041-.114.122-.254.18-.14.058-.254.139-.254.18 0 .04-.198.074-.44.074-.424 0-.453.015-.877.474-.658.713-.914.553-.615-.385.104-.323.79-1.105.97-1.105.063 0 .115-.034.115-.075 0-.041.136-.14.302-.218.166-.079.321-.195.346-.258a.126.126 0 0 1 .164-.07c.066.026.12.004.12-.047 0-.052.05-.094.11-.094.156 0 .566-.2.566-.275.001-.097.887-.076.986.024.06.06.215.033.497-.088.282-.12.436-.148.496-.087a.39.39 0 0 0 .241.087c.085 0 .235.048.334.106.22.13.921.834 1.067 1.073.125.207.142 1.16.02 1.234-.137.086-.096.38.091.643.145.203.17.35.15.845-.013.33-.054.618-.09.64-.036.023-.066.134-.066.248 0 .114-.028.207-.064.207-.083 0-.255.392-.324.737a.883.883 0 0 1-.214.414c-.088.08-.16.177-.16.215 0 .083-.76.835-.843.835-.03 0-.141.08-.246.177-.104.097-.243.156-.309.13-.066-.025-.187.04-.27.144-.088.11-.22.175-.311.157a.615.615 0 0 0-.339.06c-.155.08-.977.177-1.661.194-.318.008-1.433-.322-1.601-.474-.081-.074-.187-.134-.234-.134-.047 0-.248-.162-.446-.36l-.36-.36.03.725.029.725.38.39c.211.217.495.416.636.447.14.03.406.123.592.206.187.083.475.194.641.247.355.113 1.403.13 1.47.023.024-.04.188-.097.364-.126.176-.03.415-.102.531-.162.116-.06.438-.184.715-.276.738-.245 1.57-1.134 2.095-2.241.383-.807.501-1.69.283-2.111-.172-.333-.101-.58.187-.653.232-.059.417.103.79.69.19.298.227 1.317.065 1.814-.329 1.01-.672 1.65-.903 1.684-.101.015-.184.065-.184.112 0 .13-.538.747-.653.748-.057.001-.144.078-.194.171-.05.093-.132.17-.183.17-.05 0-.236.129-.41.287a2.337 2.337 0 0 1-.625.398c-.168.06-.306.141-.306.178 0 .038-.074.068-.164.068-.09 0-.188.038-.217.085-.028.046-.156.084-.284.084-.128 0-.27.039-.317.086-.123.123-1.965.133-2.087.012-.053-.054-.232-.101-.398-.105-.165-.004-.49-.117-.724-.25a13.136 13.136 0 0 0-.74-.394c-.175-.083-.318-.18-.318-.215 0-.036-.057-.065-.127-.065s-.127.074-.127.164c0 .09-.038.188-.085.217-.19.118.02 1.185.25 1.259.227.073.802.428.946.583.075.081.19.148.256.148s.175.076.242.17c.067.092.163.168.213.168.05 0 .261.176.468.391.207.215.493.51.636.656.142.146.308.38.37.52.06.14.139.311.173.382.085.171.366 1.099.398 1.311.014.093.05.427.079.74.036.394.088.572.166.572.143 0 .545-.52.545-.704 0-.077.133-.347.296-.602.163-.255.296-.488.296-.519 0-.059.457-1.071.603-1.336.047-.085.06-.265.031-.4-.12-.547.332-1.15.694-.923.264.165.405.762.271 1.155-.06.178-.14.36-.177.404-.037.044-.067.223-.067.397 0 .175-.035.339-.077.365-.043.026-.105.21-.138.407-.033.198-.131.46-.219.584-.087.124-.159.262-.159.307 0 .046-.058.13-.128.19-.07.058-.193.244-.272.412-.078.168-.33.534-.558.814l-.723.889c-.17.21-.414.476-.544.592l-.677.615c-.243.222-.517.427-.61.457a.817.817 0 0 0-.308.21c-.075.087-.174.158-.22.158-.045 0-.151.076-.235.17-.085.092-.2.168-.257.168-.057 0-.151.057-.209.127a.441.441 0 0 1-.302.127c-.108 0-.416.115-.685.254-.27.14-.555.254-.635.254-.08 0-.17.038-.198.085-.03.047-.27.085-.537.085-.295 0-.555.05-.667.128-.141.099-.457.13-1.395.134-1.363.007-3.206-.118-3.382-.229a.643.643 0 0 0-.158-.078c-.16-.021-.5-.172-.69-.305-.124-.087-.305-.158-.402-.158-.098 0-.178-.034-.178-.075 0-.042-.14-.102-.312-.134-.293-.055-1.38-.774-1.381-.913 0-.035-.048-.064-.106-.065-.19-.002-.822-.95-.824-1.234-.003-.544.59-.745.789-.267.106.255.395.582.395.448 0-.033.117.058.26.201.144.144.31.26.372.26.06 0 .13.077.155.17.025.097.115.17.21.17a.4.4 0 0 1 .273.127c.058.07.165.127.237.127.196 0 .941.247 1.307.433.081.04.37.075.642.075s.522.026.554.058a.472.472 0 0 0 .205.086c.283.053 2.549.041 2.636-.013.05-.03.456-.073.904-.095.772-.038 1.382-.198 1.034-.27a.537.537 0 0 0-.305.055c-.18.097-.743-.037-.933-.221-.093-.09-.09-.13.015-.235.102-.103.39-.127 1.478-.127 1.033 0 1.408-.03 1.593-.127.134-.07.205-.13.158-.134a80.897 80.897 0 0 0-1.397-.022c-1.273-.013-1.313-.02-1.338-.196-.02-.133.046-.218.246-.317.15-.075.334-.136.41-.136a.356.356 0 0 0 .22-.08c.045-.044.481-.087.97-.094.489-.008.927-.039.974-.068a.63.63 0 0 1 .254-.06c.522-.021.64-.044.596-.115-.028-.045-.773-.07-1.762-.056-.942.012-1.78-.011-1.861-.052-.193-.096-.187-.249.019-.51.181-.231.413-.265 2.584-.37.513-.024.968-.08 1.012-.124.05-.05-.002-.08-.14-.08-.123 0-.239-.047-.258-.105-.029-.085-.061-.085-.164 0-.086.07-.472.107-1.178.111-1.149.007-1.397.026-1.624.121-.098.041-.21.01-.318-.087-.215-.194-.21-.309.025-.522.183-.167.374-.21 1.526-.335.27-.029.51-.086.534-.126.025-.04.329-.072.675-.072.364 0 .63-.036.63-.085 0-.047-.029-.088-.063-.091a13.625 13.625 0 0 1-.684-.12c-.393-.074-2.394-.068-2.588.007-.334.129-.66-.378-.331-.515.364-.153 1.1-.28 2.581-.448 1.159-.13.646-.203-1.234-.175-1.765.027-1.946.017-2.03-.117-.179-.283.098-.407 1.098-.494 1.554-.135 1.896-.182 1.896-.259 0-.04-.257-.082-.571-.092l-.92-.03a2.057 2.057 0 0 1-.498-.067c-.082-.031-.192-.024-.244.017-.191.15-1.117.115-1.418-.053-.55-.307-.371-.508.519-.582.475-.04 1.328-.096 1.605-.106.194-.007.199-.018.07-.147-.09-.09-.34-.154-.717-.182-.802-.06-.902-.057-1.755.052-.65.082-.793.077-1.038-.04-.341-.161-.394-.234-.326-.447.042-.133.158-.17.662-.207.335-.025.857-.076 1.16-.114 1.349-.17-.834-.273-2.954-.14-.39.025-.8.022-.91-.006-.3-.075-.25-.34.106-.56.243-.15.428-.189.91-.186l.604.003-.797-.082c-.545-.056-.853-.054-.974.006-.097.049-.443.11-.769.135a8.778 8.778 0 0 0-.973.132c-.21.046-.524.108-.699.136-.174.029-.317.085-.317.125 0 .04-.112.074-.25.074-.136 0-.27.034-.295.075-.025.041-.215.1-.42.131-.207.03-.423.112-.48.18-.056.07-.23.186-.388.26-.229.11-.31.115-.411.03-.289-.238-.103-.684.362-.87.179-.072.375-.19.436-.264a.4.4 0 0 1 .266-.135c.085 0 .173-.031.197-.07.024-.038.283-.137.577-.22.293-.082.599-.183.68-.226a.799.799 0 0 1 .31-.076c.09 0 .177-.039.192-.086.085-.254 5.775-.246 6.035.008.044.043.169.078.277.078.107 0 .262.033.342.074 1.031.52 1.081.511 1.158-.184a8.32 8.32 0 0 1 .104-.716c.047-.19.043-.19-1.01-.19-.833 0-1.08-.027-1.162-.126-.192-.231-.037-.382.393-.382.57 0 1.474-.316 1.699-.593.057-.07.104-.292.106-.493l.003-.367-.354.303c-.195.167-.403.303-.463.303s-.245.076-.41.17c-.167.093-.408.169-.537.169-.129 0-.277.043-.33.095-.154.154-1.327.012-1.587-.193-.269-.211-.269-.329-.002-.58.172-.161.292-.195.633-.18a4.641 4.641 0 0 0 1.895-.368c.857-.392 1.016-.668.955-1.66-.053-.866-.175-1.767-.307-2.279a8.506 8.506 0 0 1-.16-.846c-.033-.257-.106-.55-.162-.651-.132-.239-.128-1.13.006-1.304a.68.68 0 0 1 .325-.19c.263-.065.92-.716.92-.911 0-.075.108-.249.24-.386.236-.248.393-.522.367-.644-.007-.034.025-.063.071-.063.047 0 .085-.074.085-.164 0-.09.038-.188.085-.217.046-.029.084-.14.084-.245 0-.106.027-.219.059-.251s.07-.277.085-.543c.014-.267.069-.568.122-.67.059-.114.075-.358.041-.635a39.73 39.73 0 0 1-.102-1c-.026-.303-.08-.627-.12-.72-.114-.265-.175-.686-.248-1.703-.037-.518-.093-.984-.125-1.036-.032-.052-.017-.17.033-.265a.326.326 0 0 0 .008-.327c-.057-.107-.053-.187.012-.252.07-.07.066-.19-.016-.457-.101-.334-.174-1.323-.168-2.275a4.033 4.033 0 0 0-.08-.762 1.734 1.734 0 0 1-.009-.713c.047-.209.046-.369-.004-.418-.044-.045-.08-.339-.08-.654 0-.416-.047-.656-.17-.875-.093-.166-.17-.351-.17-.413 0-.06-.06-.233-.134-.382a1.894 1.894 0 0 1-.153-.391.38.38 0 0 0-.076-.18c-.033-.032-.06-.131-.06-.22 0-.18-.497-1.263-.62-1.346a.1.1 0 0 1-.029-.134c.027-.044-.092-.213-.264-.376-.173-.163-.354-.366-.403-.451-.05-.086-.214-.222-.367-.304a2.752 2.752 0 0 1-.449-.304c-.094-.086-.185-.15-.203-.142-.08.035-.374-.084-.374-.15 0-.041-.093-.075-.206-.075-.114 0-.23-.038-.26-.085-.028-.046-.126-.084-.216-.084s-.164-.031-.164-.07c0-.037-.136-.121-.3-.186-.166-.065-.342-.167-.392-.228-.052-.061-.269-.11-.5-.11-.224 0-.43-.037-.46-.084-.028-.046-.119-.085-.2-.085-.082 0-.23-.076-.33-.169a.666.666 0 0 0-.381-.17.707.707 0 0 1-.363-.124c-.09-.068-.305-.125-.477-.127-.172 0-.334-.036-.36-.078-.025-.042-.19-.097-.364-.122-.58-.085-.91-.163-.953-.227-.07-.1-1.21-.35-2.18-.477-.199-.026-.36-.08-.36-.123 0-.042-.172-.076-.381-.076-.21 0-.381-.034-.381-.077 0-.042-.2-.096-.445-.12l-.992-.098c-.3-.03-.592-.09-.647-.136-.055-.045-.133-.075-.172-.066-.171.04-1.478-.124-1.519-.191-.025-.04-.436-.074-.913-.074-.476 0-.905-.038-.95-.084-.047-.047-.217-.105-.378-.13-.4-.062-3.092-.299-3.975-.35-.395-.023-.767-.082-.825-.13-.075-.062-.106-.06-.106.007 0 .116-1.153.132-1.224.016-.029-.046-.152-.049-.299-.007-.187.054-1.23.052-1.23-.002 0-.052-3.989-.06-4.056-.008-.05.04-.378.076-.727.083-.349.007-.91.055-1.244.108-.336.053-.688.076-.784.05-.095-.024-.191-.015-.213.021-.023.036-.387.07-.81.076-.422.006-.84.05-.927.096-.088.047-.371.085-.63.085-.26 0-.472.038-.472.083 0 .11-.771.082-.924-.034-.087-.066-.129-.062-.155.015-.022.065-.19.106-.435.106-.22 0-.435.034-.48.076-.076.072-.744.14-2.272.23-.367.021-.734.074-.815.117a.573.573 0 0 1-.325.045c-.098-.02-.196-.005-.219.03-.022.037-.185.072-.361.08a3.128 3.128 0 0 0-.617.098 2.79 2.79 0 0 1-.642.086c-.19 0-.374.027-.407.06-.098.098-.831.27-1.17.275-.171.002-.334.039-.36.082-.027.044-.354.106-.725.138-.372.033-.676.092-.676.133 0 .04-.15.074-.334.074-.183 0-.357.038-.386.084-.029.047-.2.085-.38.085-.182 0-.353.038-.382.085-.029.046-.161.084-.294.084-.133 0-.413.074-.622.163-.21.09-.4.144-.424.12-.05-.05-.648.139-.772.243-.044.037-.187.067-.318.067-.13 0-.237.038-.237.085 0 .046-.126.084-.28.084-.153 0-.315.032-.359.07-.13.113-.752.287-.932.262-.09-.013-.372.078-.625.203s-.53.227-.614.227c-.084 0-.153.039-.153.085 0 .047-.093.085-.207.085-.113 0-.228.035-.255.078-.026.043-.169.105-.317.137-.147.032-.396.13-.551.218-.156.088-.359.16-.45.16-.092 0-.167.038-.167.084 0 .047-.077.085-.17.085-.093 0-.17.034-.17.075 0 .042-.094.1-.21.129-.117.03-.212.09-.212.136 0 .046-.077.083-.17.083-.093 0-.17.038-.17.085 0 .047-.094.085-.21.085-.117 0-.212.038-.212.084 0 .047-.063.085-.14.085-.077 0-.27.133-.427.296-.159.163-.344.297-.411.297-.068 0-.123.038-.123.084 0 .047-.05.085-.111.085s-.203.086-.316.19c-.112.105-.216.18-.231.165-.015-.014-.273.167-.573.403-.3.236-.575.432-.61.436-.035.004-.14.107-.233.23-.094.121-.345.413-.558.647-.436.48-.924 1.172-.924 1.312 0 .05-.095.135-.212.189-.116.053-.211.166-.211.252 0 .085-.039.155-.085.155-.047 0-.085.051-.085.113 0 .061-.095.201-.212.31-.116.11-.211.27-.211.354 0 .085-.038.155-.085.155-.046 0-.085.076-.085.17 0 .092-.038.168-.084.168-.047 0-.085.044-.085.096 0 .053-.08.165-.177.25-.097.084-.152.194-.122.243.03.049.024.09-.013.09-.072 0-.28.398-.28.535 0 .043-.07.14-.153.216-.155.139-.44.918-.44 1.2 0 .085-.038.178-.085.207-.047.029-.085.276-.085.55s-.038.522-.084.55c-.047.03-.085.2-.085.381s-.038.353-.085.381c-.108.067-.114 3.196-.006 3.307.043.044.101.537.128 1.096.028.559.088 1.416.135 1.905.127 1.342.297 4.532.293 5.525 0 .128.028.232.064.232.035 0 .064.058.064.127 0 .07-.043.127-.095.127-.067 0-.065.037.007.124.068.082.084.273.05.571-.03.247-.057.487-.062.533-.015.16.106 1.093.147 1.134.038.038.326-.316.337-.414.02-.177.398-.837.502-.877.071-.027.13-.107.13-.177 0-.25.632-1.113 1.21-1.654.652-.61 1-.848 1.238-.848.174 0 .301.219.173.298-.045.028-.081.125-.081.217s-.175.333-.39.537a17.145 17.145 0 0 0-1.31 1.375 1.87 1.87 0 0 0-.288.536c-.07.226-.353.762-.403.762-.036 0-.065.062-.065.138 0 .076-.07.2-.154.276-.129.114-.23.284-.311.517l-.064.17c-.067.17-.152.566-.206.953-.025.175-.079.339-.12.365-.042.025-.076.158-.076.295 0 .137-.038.25-.085.25-.052 0-.084.48-.084 1.27s.032 1.27.084 1.27c.047 0 .085.111.085.248s.038.273.085.302c.046.029.084.183.084.343 0 .16.038.292.085.292.047 0 .085.076.085.17 0 .223.404.985.695 1.31l.625.7c.218.244.448.444.512.444.063 0 .115.03.115.064 0 .036.116.116.258.179.142.062.361.2.487.304.126.104.333.215.462.247.213.052.232.036.232-.189 0-.305.173-.456.481-.42.16.018.246.082.264.196.014.094.066.25.114.348.088.178.059 1.035-.051 1.515-.06.262-.385.984-.476 1.058-.028.024-.076.144-.107.268-.073.3-1.13 1.342-1.615 1.591-.213.11-.388.232-.388.271 0 .04-.15.072-.332.072-.183 0-.385.047-.448.106a1.15 1.15 0 0 1-.825.317c-.185 0-.472.076-.638.17-.484.271-1.901.192-1.905-.106 0-.035-.093-.064-.207-.064-.114 0-.23-.038-.259-.085-.029-.046-.128-.084-.22-.084-.093 0-.264-.096-.38-.212-.117-.116-.23-.212-.254-.212-.023 0-.126-.078-.229-.174l-.186-.174-.141.174c-.078.096-.179.174-.224.174-.046 0-.105.058-.132.127-.027.07-.184.192-.348.27-.164.079-.299.176-.299.218 0 .098-.22.317-.32.317-.042 0-.145.075-.228.167-.084.092-.18.15-.214.129-.034-.021-.13.037-.213.129a.598.598 0 0 1-.435.167c-.156 0-.283.038-.283.085 0 .047-.076.085-.17.085-.093 0-.169.035-.169.078 0 .044-.219.106-.487.139-.268.033-.577.131-.689.218-.238.186-1.216.221-1.578.056-.172-.078-.258-.078-.384 0a.747.747 0 0 1-.332.101c-.17 0-.228.232-.181.72a.735.735 0 0 1-.07.339c-.047.093-.096.588-.11 1.1-.014.513-.056.994-.093 1.071-.057.119.022.155.524.24.38.063.644.158.739.262.3.331.539.152.97-.726.068-.14.181-.311.251-.381s.28-.317.465-.55c.186-.233.366-.436.402-.452.036-.015.065-.076.065-.135 0-.118 1.036-1.134 1.561-1.532.184-.138.418-.328.521-.421.373-.337.455-.381.703-.381.331 0 .397.124.213.404-.148.227-.7.781-.776.781-.06 0-.867.859-.867.923 0 .03-.077.11-.17.178-.093.067-.169.163-.169.214 0 .051-.113.2-.25.332-.138.132-.242.268-.233.302.01.034-.079.172-.196.305-.289.33-.613.794-.555.794.045 0-.133.237-.354.47a.42.42 0 0 0-.105.245c0 .074-.036.2-.079.281-.114.214-.204.476-.189.55.007.034-.024.063-.071.063-.047 0-.085.075-.085.166 0 .092-.076.303-.169.469-.093.166-.17.356-.17.423s-.076.258-.169.423c-.093.166-.169.39-.169.497 0 .107-.025.22-.055.25-.08.08-.113.514-.165 2.174-.025.815-.013 1.569.026 1.675.046.121.077-.337.084-1.225.007-.936.042-1.429.103-1.45.05-.016.092-.177.092-.356 0-.18.038-.35.084-.38.047-.028.085-.173.085-.322 0-.148.058-.38.127-.512.07-.134.127-.296.127-.36 0-.065.038-.118.085-.118.046 0 .085-.085.086-.19.001-.105.077-.286.168-.402.09-.117.166-.26.167-.318.002-.133.445-.984.531-1.023.035-.015.064-.082.064-.148 0-.066.028-.12.064-.12.035 0 .11-.105.168-.233a2.49 2.49 0 0 1 .383-.529c.154-.163.52-.578.813-.921.294-.344.694-.764.89-.933.196-.17.51-.451.699-.626.52-.48.989-.817 1.142-.82a.365.365 0 0 1 .245.127c.133.16-.05.386-.553.68-.187.11-.606.491-.931.848a84.08 84.08 0 0 1-.888.96c-.306.32-.572.643-.72.872l-.487.737c-.221.333-.402.673-.402.755 0 .187-.19.605-.275.606-.035 0-.064.077-.064.17 0 .093-.04.17-.09.17-.052 0-.068.072-.036.17.055.176-.117.676-.233.676-.035 0-.064.093-.064.207 0 .114-.038.23-.085.259-.046.029-.084.31-.084.623 0 .314-.036.607-.079.651-.043.044-.095.385-.116.758-.021.373-.056.81-.077.974-.039.29-.022.36.174.74.053.104.098.338.098.52 0 .33.301 1.026.444 1.026.04 0 .052.035.025.078-.027.044-.01.103.037.132.047.03.086.14.086.247 0 .21.737 1.137.91 1.146.065.003.106-.106.106-.286 0-.16.039-.315.086-.345.047-.029.066-.086.041-.126-.025-.04-.006-.097.041-.126.047-.029.086-.184.086-.344 0-.16.038-.292.085-.292.046 0 .085-.076.085-.169 0-.093.03-.17.068-.17.038 0 .122-.133.186-.296.064-.163.147-.296.185-.296.038 0 .069-.043.069-.096 0-.176.576-.9 1.158-1.456.996-.95 1.17-1.043 1.442-.77.12.12.11.149-.111.317-.356.27-1.05.963-1.05 1.048 0 .04-.074.126-.165.192-.09.065-.145.15-.122.188.024.038.002.07-.047.07s-.09.056-.09.126-.038.127-.084.127c-.047 0-.085.042-.085.093 0 .05-.08.205-.178.343-.099.138-.157.273-.13.3.027.027-.026.144-.118.26-.092.117-.166.281-.166.365 0 .084-.039.177-.085.205-.047.03-.085.146-.085.26 0 .113-.038.206-.085.206-.046 0-.084.095-.084.212 0 .116-.038.211-.085.211-.047 0-.085.096-.085.212 0 .132.048.212.127.212.07 0 .127-.076.127-.17 0-.093.043-.169.094-.169.052 0 .073-.054.047-.12-.052-.136.31-.912.498-1.069.068-.056.123-.135.123-.175 0-.04.081-.167.18-.281.1-.114.224-.295.278-.402.053-.107.165-.208.248-.224.083-.016.306-.197.495-.403.287-.312.397-.374.656-.374.428 0 .54.128.38.436-.068.133-.157.241-.197.241-.04 0-.093.077-.117.17-.024.093-.105.17-.18.17-.073 0-.134.04-.134.09 0 .097-.53.786-.783 1.02-.082.075-.148.199-.148.275 0 .076-.034.138-.074.138-.04 0-.098.153-.128.339-.03.186-.092.338-.138.338-.046 0-.084.077-.084.17 0 .093-.038.17-.084.17-.047 0-.085.075-.085.168 0 .094-.038.17-.085.17-.046 0-.085.168-.085.374 0 .222-.042.39-.105.412-.085.03-.085.074 0 .218a.89.89 0 0 1 .105.381c0 .112.053.246.117.3.093.076.126.043.169-.17.03-.147.053-.395.053-.553 0-.158.036-.353.08-.434.043-.081.128-.271.19-.422.06-.152.139-.276.174-.276.035 0 .064-.057.064-.128 0-.353.623-1.057.935-1.057.516 0 .573.47.156 1.29a.739.739 0 0 0-.075.275c0 .07-.038.128-.085.128-.046 0-.084.079-.084.174 0 .095-.065.295-.145.445-.113.211-.143.483-.14 1.246.004.921.019 1.006.273 1.524.395.803.949 1.496 1.114 1.394.047-.03.065-.086.04-.126-.024-.04-.005-.097.042-.126.047-.03.086-.127.086-.218 0-.09.038-.164.084-.164.047 0 .085-.077.085-.17a.81.81 0 0 1 .078-.318c.042-.08.22-.442.393-.803.173-.36.348-.656.388-.656.04 0 .072-.076.072-.17 0-.093.03-.169.064-.169.036 0 .111-.105.169-.233.057-.128.276-.413.486-.634.21-.221.382-.423.382-.449 0-.078.941-.97 1.024-.97.042 0 .077-.038.077-.085 0-.046.05-.084.11-.084.19 0 .827-.34.875-.467.058-.15.302-.231.484-.161.297.114.152.45-.453 1.051-.326.324-.593.628-.593.676 0 .047-.06.086-.134.086-.074 0-.12.044-.101.098.018.054-.103.235-.268.403a3.435 3.435 0 0 0-.465.601c-.09.162-.31.447-.486.634-.177.186-.323.39-.323.453-.001.13-.21.633-.394.944a2.222 2.222 0 0 0-.172.36c-.026.081-.08.148-.122.148-.041 0-.075.074-.075.164 0 .09-.038.188-.085.217-.046.029-.084.158-.084.287 0 .13-.027.261-.059.293-.064.065-.088.174-.162.732-.028.21-.085.417-.127.462-.105.111-.097 2.14.01 2.205.046.029.084.238.084.464 0 .427.198 1.374.341 1.63a.652.652 0 0 1 .082.259c0 .156.2.567.275.567.035 0 .064.058.064.128s.034.127.075.127c.04 0 .099.067.128.148.07.194.263.521.37.628.056.056.085-.217.087-.817.002-.85.172-1.916.361-2.265a.858.858 0 0 0 .08-.344c0-.108.068-.27.152-.36.155-.167.306-.46.288-.557-.006-.03.064-.121.156-.204.09-.082.166-.201.166-.264 0-.062.038-.114.084-.114.047 0 .085-.076.085-.169 0-.093.055-.17.122-.17s.185-.104.262-.232c.18-.3 1.017-.888 1.206-.849.194.04.155.402-.062.583-.144.12-.312.378-.631.966a5.42 5.42 0 0 1-.283.436c-.105.146-.19.327-.19.401 0 .074-.039.135-.085.135-.047 0-.085.058-.085.128a.71.71 0 0 1-.079.275c-.126.237-.203.479-.186.586a.165.165 0 0 1-.071.153c-.048.03-.087.139-.087.243 0 .105-.036.226-.08.27-.13.13-.154 2.26-.026 2.303.058.02.106.164.106.32 0 .157.095.464.211.683.117.22.212.432.212.474 0 .042.08.16.178.262.099.103.27.33.383.505.112.175.258.317.326.317s.16.07.206.155c.045.085.246.266.447.402.2.136.439.314.53.396.09.081.213.148.274.148.061 0 .111.037.111.082 0 .046.21.143.464.218.256.074.487.17.513.214.027.043.123.079.214.079.09 0 .164.038.164.084 0 .047.073.085.162.085.09 0 .175.03.19.068.051.121 1.956.356 2.89.356.795 0 .918-.02.958-.149a2.04 2.04 0 0 1 .124-.295c.043-.08.079-.298.079-.482s.038-.358.084-.387c.047-.029.085-.128.085-.222 0-.093.059-.367.13-.609.073-.241.17-.572.218-.735.048-.163.157-.449.243-.635.155-.339.267-.64.266-.72 0-.023.066-.118.147-.211a2.33 2.33 0 0 0 .27-.424c.068-.14.19-.328.271-.418.082-.09.148-.226.148-.3 0-.076.134-.267.297-.425.163-.158.296-.33.296-.383 0-.11.88-.971.992-.971.042 0 .205-.134.363-.297.327-.337.667-.396.737-.127.025.093.078.17.12.17.04 0 .074.213.074.473 0 .403-.025.48-.17.518-.092.024-.169.089-.169.143 0 .054-.076.153-.169.22-.093.067-.17.154-.17.194 0 .143-.446.653-.57.653-.15 0-.445.314-.445.473 0 .06-.076.132-.17.162-.093.03-.169.108-.169.175 0 .067-.034.121-.075.121-.059 0-.296.461-.392.762a1.306 1.306 0 0 1-.289.508c-.2.19-.498.79-.454.91.021.059-.003.106-.053.106-.05 0-.092.112-.092.25 0 .136-.038.272-.084.3-.047.03-.085.157-.085.285 0 .128-.036.268-.08.312-.044.045-.086.271-.094.504a4.468 4.468 0 0 1-.096.752c-.055.224-.052.357.01.419.056.056.09.551.09 1.296 0 .713.035 1.228.085 1.259.047.028.085.257.085.508 0 .25.038.479.085.508.046.028.085.162.085.296 0 .134.04.269.09.3.05.03.07.109.045.174-.025.065.003.119.063.119.059 0 .177.161.262.36.085.197.224.435.308.529.084.093.152.188.152.211-.003.163.198.498.383.636.121.092.22.234.22.316 0 .082.032.149.07.149.037 0 .197.171.354.38.157.21.335.382.397.382.06 0 .11.073.11.163 0 .094.08.189.183.222.1.032.262.129.36.215.48.426.875.726 1.067.812l.55.248c.186.085.364.155.395.157a.236.236 0 0 1 .12.067c.035.035.133.063.219.063.085 0 .155.031.155.07 0 .037.133.12.296.184.163.064.297.147.297.185 0 .038.088.07.197.07.109 0 .224.026.257.059.057.056.219.092.604.134.22.023.272-.29.09-.55-.09-.13-.133-.383-.133-.8 0-.337-.037-.635-.084-.664-.096-.06-.095-.957.001-1.017.035-.022.09-.255.124-.52.033-.264.1-.56.15-.657l.176-.346c.309-.606.46-.838.736-1.125.35-.364.811-.618.994-.548.17.065.066.682-.153.915-.091.097-.166.22-.166.272 0 .053-.047.127-.105.164-.14.09-.487.588-.487.7a.087.087 0 0 1-.085.088c-.047 0-.085.133-.085.296 0 .163-.04.296-.088.296-.058 0-.083.409-.073 1.186.008.651.048 1.185.088 1.185.04 0 .073.058.073.128s.036.194.079.275c.065.123.147.32.218.528.103.305.233.5.424.638.128.091.337.252.466.357.278.225.676.258.676.055 0-.075-.095-.25-.212-.388-.116-.138-.211-.304-.211-.37 0-.064-.076-.253-.17-.419-.093-.166-.169-.388-.169-.493 0-.106-.038-.231-.085-.278-.132-.132-.15-1.864-.02-1.993a.488.488 0 0 0 .105-.3c0-.108.038-.195.085-.195.046 0 .084-.054.084-.12 0-.198.37-.827.56-.952.194-.128.456-.074.456.094 0 .058-.065.235-.145.393-.158.315-.187.407-.252.817-.025.152-.078.276-.12.276-.104 0-.095 1.163.01 1.227.046.03.084.235.084.457 0 .222.029.433.063.468a.301.301 0 0 1 .075.12c.046.224.148.437.21.437.042 0 .075.076.075.17 0 .092.038.169.085.169.047 0 .085.05.085.113s.076.183.169.268c.093.084.17.217.17.296 0 .21.288.508.492.508.159 0 .167-.025.087-.254-.048-.14-.123-.254-.165-.254-.042 0-.076-.093-.076-.207 0-.113-.038-.23-.085-.259-.046-.029-.084-.145-.084-.259 0-.113-.039-.206-.085-.206-.047 0-.085-.069-.085-.153a.401.401 0 0 0-.095-.247c-.139-.14-.145-3.26-.006-3.306.056-.019.102-.162.102-.318s.038-.308.084-.337c.047-.029.085-.12.085-.203 0-.18.226-.667.406-.876.07-.082.097-.148.06-.148-.038 0 .013-.071.114-.158.1-.087.182-.202.182-.256 0-.148.193-.46.365-.589a.82.82 0 0 0 .228-.31c.075-.199.504-.36.675-.255.205.127-.064.93-.468 1.398a1.05 1.05 0 0 0-.168.36c-.032.128-.092.233-.133.233-.042 0-.076.088-.076.195 0 .107-.04.235-.09.284-.05.05-.092.22-.096.377-.003.158-.042.333-.087.39-.144.182.032 2.51.198 2.612.041.026.075.137.075.248 0 .111.038.226.085.254.047.03.085.124.085.21 0 .088.047.21.106.271.144.153.656.996.656 1.081 0 .038.08.09.178.116.097.026.156.08.13.123-.026.042.37.487.88.99.51.501.928.889.928.86 0-.048.23.123.47.35.06.058.138.106.17.106.033 0 .13.08.214.177.084.097.187.156.227.131.04-.025.127.029.193.12.065.09.167.164.227.164s.108.038.108.085c0 .047.07.085.156.085s.226.076.31.17c.085.093.172.152.193.13.022-.022.273.079.558.223.285.145.652.33.815.41.163.082.428.177.59.211.369.079.576.196.813.462.103.116.258.214.345.219l.468.023c.185.009.408.095.55.213a.85.85 0 0 0 .531.198c.16-.001.307.043.325.097.019.058.207.1.45.1.228 0 .415.037.415.084 0 .046.053.084.118.084.064 0 .226.057.36.127.133.07.364.127.512.127.149 0 .296.043.328.094.036.057.181.074.372.044.21-.034.367-.01.476.073.09.067.317.124.506.125.188.001.379.038.423.082.044.043.385.099.758.124l1.905.126c1.407.094 5.569.045 5.707-.066.05-.041.414-.08.806-.087.393-.006.755-.045.805-.086.05-.04.338-.094.64-.117.303-.024.76-.086 1.016-.138.256-.051.606-.111.776-.133.17-.021.404-.075.52-.119.115-.043.324-.061.465-.039.141.022.281.001.311-.048.03-.049.222-.089.426-.089s.395-.038.423-.084c.03-.047.203-.085.386-.085.184 0 .334-.038.334-.085 0-.046.093-.084.207-.084.113 0 .23-.038.259-.085.029-.047.28-.085.56-.085s.573-.033.652-.075c.078-.041.371-.1.65-.133.471-.053.531-.04.823.181.187.142.315.312.317.421.003.2.356.368.773.368.13 0 .26.038.289.085.029.046.184.085.345.085.16 0 .358.033.439.074.203.103.91.264 1.16.264.112 0 .226.035.252.077.068.11 3.661.12 3.729.01.03-.048.259-.087.51-.087.25 0 .476-.033.5-.073.026-.04.358-.078.74-.083.382-.005.716-.039.743-.075.083-.112.655-.282.784-.233.067.026.231-.01.365-.079.133-.069.27-.108.306-.086.035.022.24-.059.456-.18.216-.12.571-.252.79-.293.732-.138.903-.192.971-.307.037-.063.147-.115.244-.115a.498.498 0 0 0 .313-.148c.199-.214.642-.444.857-.444a.227.227 0 0 0 .23-.17c.024-.093.115-.169.203-.169.088 0 .16-.038.16-.085 0-.046.076-.084.169-.084.093 0 .17-.03.17-.065 0-.036.142-.133.317-.216.45-.214.674-.349.853-.51.085-.078.2-.14.254-.14.055 0 .1-.039.1-.085 0-.047.047-.086.105-.086.162-.002.678-.489.619-.584-.029-.046.025-.125.12-.176.094-.05.171-.15.171-.22s.072-.203.159-.297c.174-.187.773-1.312.773-1.451 0-.048.067-.15.148-.225.082-.075.205-.25.273-.39.068-.14.25-.458.405-.706.313-.503.474-.886.612-1.453.089-.365.148-.531.343-.954.049-.106.1-.296.113-.424.014-.127.05-.257.081-.288.031-.03.057-.143.057-.249 0-.105.038-.216.086-.245.047-.03.066-.086.042-.125-.025-.04.015-.328.088-.64.072-.314.114-.615.093-.67-.067-.176.12-1.017.25-1.117.22-.169.422-.035.57.378.194.543.196 2.076.003 2.56-.097.24-.112.372-.05.434.15.15.273-.009.273-.354 0-.18.038-.352.084-.38.047-.03.085-.24.085-.466 0-.228.04-.438.089-.469.06-.037.056-.093-.013-.176-.077-.093-.078-.174-.004-.336.127-.278.125-.736-.004-.865-.079-.08-.079-.124 0-.203a.463.463 0 0 0 .102-.286c0-.225.206-.411.38-.345.07.027.128.125.128.217 0 .091.038.19.085.219.046.029.084.252.084.496s.044.488.098.542c.07.07.073.129.007.207-.05.06-.11.395-.135.745-.06.864-.142 1.377-.24 1.499-.153.188.02.28.466.248.446-.032 1.347-.298 1.399-.414.015-.035.1-.063.19-.063s.162-.039.162-.085c0-.047.04-.085.089-.085.048 0 .298-.162.556-.36.257-.198.581-.443.72-.545.26-.19.602-.612.74-.915.044-.093.18-.264.305-.38a1.95 1.95 0 0 0 .364-.508 2.01 2.01 0 0 1 .185-.34c.13-.118.259-.448.259-.666 0-.134.05-.286.11-.336.06-.05.12-.253.131-.452.012-.198.062-.408.11-.467.105-.125.048-1.248-.088-1.762-.05-.186-.139-.555-.199-.82-.06-.264-.137-.509-.171-.543a.294.294 0 0 1-.063-.18c0-.196-.46-.804-1.009-1.336-.283-.274-.515-.54-.515-.593 0-.052-.133-.147-.296-.21-.163-.065-.296-.148-.296-.186 0-.038-.069-.069-.152-.069-.083 0-.292-.072-.464-.16-.171-.087-.56-.185-.864-.218-.304-.032-.552-.094-.552-.137 0-.043-.134-.078-.297-.078-.163 0-.296-.033-.296-.074 0-.04-.114-.122-.254-.18-.218-.09-.254-.15-.254-.418 0-.229.057-.363.212-.498.28-.242.803-.25 1.016-.015.095.105.26.17.436.17.156 0 .283.04.283.09 0 .049.067.08.148.068.239-.035 1.038.25 1.038.37 0 .035.076.064.169.064.093 0 .17.038.17.085 0 .046.06.084.135.084.075 0 .211.096.303.212.091.117.222.212.291.212.14 0 .534.412.538.564 0 .054.197.264.436.466.238.202.495.432.571.512.38.4.505.564.532.704.016.084.071.167.122.184.16.053-.126-1.256-.31-1.414a.627.627 0 0 1-.106-.17 4.27 4.27 0 0 0-.356-.508c-.164-.21-.32-.447-.348-.529-.028-.081-.084-.148-.125-.148-.041 0-.075-.04-.075-.089 0-.099-1.36-1.431-1.462-1.433-.036-.001-.216-.097-.4-.214-.185-.116-.414-.211-.51-.211-.095 0-.195-.056-.221-.125-.026-.068-.178-.149-.337-.179-.16-.03-.31-.088-.336-.13-.025-.04-.213-.074-.417-.074s-.395-.04-.425-.088c-.03-.05-.174-.064-.332-.035-.246.047-.283.029-.318-.15-.057-.298.031-.477.303-.618.275-.143.779-.167.857-.04.028.046.162.084.296.084.134 0 .268.038.296.085.03.046.146.085.26.085.242 0 1.476.573 1.476.686 0 .041.05.076.112.076s.202.095.311.211c.11.117.246.212.302.212.057 0 .226.114.376.254s.296.254.326.253c.112 0 1.365 1.403 1.366 1.53 0 .073.117.243.258.379.142.136.308.343.37.46.061.118.174.328.25.468.076.14.138.357.138.482s.039.251.086.28c.046.029.084.2.084.381 0 .18.04.354.089.384.049.03.083.118.075.195-.035.351.013.776.087.776.104 0 .765-.646.765-.747 0-.042.096-.148.212-.235.116-.087.212-.199.212-.247 0-.049.076-.143.169-.21a.43.43 0 0 0 .17-.301c0-.099.026-.206.058-.238a.375.375 0 0 0 .077-.18 1.91 1.91 0 0 1 .153-.391c.074-.15.135-.399.135-.554 0-.156.038-.284.084-.284.105 0 .116-1.833.012-1.898-.04-.024-.073-.194-.073-.376 0-.551-.547-1.525-1.18-2.1-.295-.27-.537-.535-.537-.59 0-.18-.288-.237-1.227-.24-.917-.005-1.102-.043-1.863-.384a13.002 13.002 0 0 0-.635-.262 1.759 1.759 0 0 1-.517-.326c-.247-.243-.538-.494-1.107-.955-.587-.475-.916-1.021-.916-1.517 0-.343.034-.43.216-.549.208-.136.221-.134.36.062.078.111.132.234.12.272-.013.038.092.24.233.449.141.209.256.414.256.456 0 .268 1.986 1.523 2.41 1.523.1 0 .222.042.273.092.117.118 1.95.053 2.482-.088a8.81 8.81 0 0 1 .657-.146c.152-.025.297-.08.322-.12.026-.042.112-.076.191-.076.08 0 .373-.112.652-.248.48-.234.607-.34 1.207-1.001.292-.323.388-.34.56-.093.118.167.107.211-.134.571-.292.434-.826.951-1.162 1.124-.12.062-.312.197-.426.3-.114.103-.323.23-.466.282-.142.052-.324.13-.405.173a.69.69 0 0 1-.258.077c-.157 0-.567.199-.568.275 0 .035.07.064.156.064s.276.114.423.254c.146.14.304.254.352.254.116 0 .587.523.59.656 0 .058.078.106.172.106.093 0 .169.044.169.098 0 .053.095.222.212.375.116.153.211.306.211.34 0 .034.06.128.132.209.073.08.155.36.182.623.027.262.082.497.122.521.104.065.093 2.49-.012 2.49-.047 0-.085.191-.085.425 0 .39-.111.729-.28.853a.144.144 0 0 0-.054.127c.024.135-.106.458-.184.458-.041 0-.075.053-.075.117s-.056.163-.125.22c-.07.058-.21.272-.312.477-.102.204-.212.371-.245.371s-.123.132-.2.293c-.076.162-.252.36-.39.442-.139.082-.252.18-.252.218 0 .126-.553.624-.829.746-.15.067-.271.165-.271.22 0 .055-.034.112-.076.128-.041.015-.094.192-.116.392-.023.2-.114.448-.204.55-.09.103-.213.3-.274.44-.062.14-.146.32-.187.401a.801.801 0 0 0-.075.305c0 .086-.075.225-.167.309-.092.083-.15.179-.13.213.022.034-.036.13-.128.214-.092.083-.167.202-.167.264s-.077.16-.17.22c-.093.057-.17.154-.17.215 0 .105-.159.31-.57.732-.105.107-.192.229-.194.27-.003.09-.39.54-.465.54-.03 0-.2.153-.379.34-.179.185-.365.338-.413.338-.048 0-.182.095-.299.211-.116.117-.25.212-.3.212-.048 0-.194.112-.324.248s-.34.274-.467.306c-.127.032-.251.091-.277.133-.026.041-.137.075-.248.075-.111 0-.225.038-.254.085-.029.046-.149.085-.267.085a.523.523 0 0 0-.355.172c-.163.2-1.116.38-1.637.31-.291-.039-.323-.024-.323.146 0 .105-.026.215-.056.246-.031.03-.063.16-.072.29-.015.228-.293 1.038-.385 1.122a2.06 2.06 0 0 0-.188.346 1.607 1.607 0 0 1-.467.53c-.18.125-.377.357-.44.518-.063.16-.165.311-.227.335-.062.024-.113.103-.113.177 0 .073-.171.307-.38.52-.21.213-.382.42-.382.46 0 .095-.762.839-.859.839-.04 0-.072.05-.072.113 0 .062-.105.166-.233.232a1.587 1.587 0 0 0-.37.268c-.075.082-.199.149-.275.149-.076 0-.138.038-.138.085 0 .046-.057.084-.127.084s-.127.04-.127.089c0 .049-.095.177-.212.285-.116.108-.212.238-.212.29 0 .094-.248.262-.353.238-.032-.007-.203.12-.381.28-.333.303-.705.54-.705.451 0-.028-.07.013-.155.09-.085.077-.18.115-.212.084-.03-.031-.056-.012-.056.042 0 .054-.068.099-.15.099-.084 0-.206.076-.273.169-.068.093-.165.17-.218.17-.052 0-.164.076-.249.17-.187.206-.604.422-.816.422-.086 0-.157.038-.157.085 0 .046-.076.084-.17.084-.092 0-.168.034-.168.075 0 .06-.284.18-.406.173a1.56 1.56 0 0 0-.244.172c-.12.095-.289.173-.373.173-.084 0-.176.038-.205.085-.029.046-.155.085-.28.086a.86.86 0 0 0-.44.168c-.116.09-.269.166-.338.168-.07 0-.237.059-.37.129s-.345.126-.47.126a.702.702 0 0 0-.411.17c-.126.116-.299.169-.561.169-.209 0-.403.038-.432.084-.029.047-.126.085-.217.085-.09 0-.164.038-.164.085 0 .046-.183.084-.407.084-.227 0-.48.055-.572.125a.71.71 0 0 1-.355.127c-.104 0-.19.031-.19.067 0 .132-.55.3-.939.286-.222-.008-.428.024-.457.071-.03.048-.146.086-.26.086-.114 0-.207.043-.207.094 0 .052-.052.074-.117.05-.064-.026-.15-.013-.19.026-.136.133-2.693.134-2.907.001-.072-.044-.186-.04-.28.01-.106.058-.192.056-.266-.005-.059-.05-.127-.07-.15-.047-.023.023-.111-.035-.196-.128-.102-.113-.26-.17-.474-.17-.176 0-.344-.038-.373-.085-.029-.046-.121-.084-.206-.084-.085 0-.376-.134-.646-.297-.271-.163-.54-.296-.599-.296-.058 0-.155-.07-.216-.154a.681.681 0 0 0-.26-.21c-.082-.03-.183-.143-.224-.251a.876.876 0 0 0-.21-.31.439.439 0 0 1-.138-.292c-.002-.173-.008-.172-.168.032a.866.866 0 0 0-.167.444c-.001.128-.031.233-.067.233-.035 0-.128.146-.205.324-.142.328-1.145 1.407-1.488 1.602a.82.82 0 0 1-.317.106.743.743 0 0 0-.276.074c-.261.132-.746.265-.968.265-.119 0-.264.057-.322.127-.058.07-.158.127-.222.127s-.117.038-.117.084c0 .047-.152.085-.338.085-.186 0-.339.038-.339.085 0 .046-.068.084-.152.084-.195 0-.608.19-.61.28 0 .038-.04.044-.088.014-.049-.03-.135-.017-.19.029-.057.045-.379.133-.717.195-.337.061-.613.142-.613.178 0 .037-.093.066-.207.066-.114 0-.23.039-.26.085-.028.047-.213.085-.41.085-.198 0-.402.042-.453.094-.052.052-.505.11-1.012.13-.505.02-1.002.08-1.104.13-.139.07-.252.066-.44-.012-.223-.092-.275-.084-.443.073-.206.192-.333.22-.46.103-.123-.114-.92-.182-.807-.068.18.18.085.227-.437.217-.291-.005-.453-.028-.36-.05zm38.397-16.309c0-.109.028-.226.063-.26a.241.241 0 0 0 .068-.12c.002-.032.034-.146.071-.254.107-.314-.011-.316-.141-.003-.168.405-.242.834-.144.834.045 0 .083-.088.083-.197zm-78.211-44.451c.32-.12.44-.144.941-.192.286-.028.532-.085.548-.126.015-.042.074-.076.13-.076.056 0 .244-.133.417-.296.172-.163.342-.297.378-.297.035 0 .11-.107.169-.238.058-.13.173-.312.256-.402.22-.239.48-.816.451-1.001-.013-.088.026-.19.087-.228.06-.038.082-.097.048-.131-.034-.035-.108-.018-.163.037-.157.158-.623.118-.974-.082-.176-.1-.463-.26-.637-.354-.175-.095-.318-.222-.318-.283a.113.113 0 0 0-.114-.112c-.172 0-.648-.255-.648-.347 0-.045-.06-.104-.133-.132-.187-.072-.967-.845-.967-.958 0-.052-.073-.172-.162-.267-.135-.146-.19-.157-.347-.073-.107.057-.336.08-.538.052-.865-.117-1.074-.16-1.118-.231-.026-.042-.157-.076-.29-.076-.135 0-.268-.038-.297-.084-.029-.047-.128-.085-.22-.085a.812.812 0 0 1-.362-.128c-.108-.07-.345-.137-.527-.148l-.33-.02.014.704c.015.705.231 2.193.366 2.513.04.093.122.293.184.444.061.152.142.276.18.276.037 0 .06.047.05.105-.025.157.104.426.28.582.084.075.153.172.153.215 0 .133.747.876.882.876.07 0 .17.076.219.169.069.129.177.17.452.17.198 0 .402.04.452.09.066.067.141.062.266-.016.175-.11.227-.098.777.178.133.067.201.062.445-.028zm-1.19-6.592a.481.481 0 0 1-.101-.296c0-.107-.038-.195-.085-.195-.047 0-.085-.13-.085-.291 0-.16-.038-.315-.084-.344-.047-.028-.085-.197-.085-.375 0-.353-.154-.547-.37-.464-.084.032-.157 0-.189-.083-.028-.074-.089-.112-.134-.084-.046.028-.139-.03-.208-.128-.069-.098-.175-.178-.237-.178s-.18-.105-.262-.233c-.167-.262-.427-.529-.513-.529-.108 0-.283.295-.286.482 0 .102-.037.207-.08.233-.041.026-.103.247-.136.492-.033.244-.094.509-.136.588-.095.181.16.664.42.795.1.05.252.155.338.233.085.077.238.14.339.14.101 0 .184.038.184.085 0 .047.093.085.207.085.113 0 .231.04.261.089.03.049.095.076.143.06.049-.016.302.015.564.069.491.102.722.037.535-.15zm68.86-6.163c.028-.047.144-.085.256-.085.18 0 .775-.227.887-.339.023-.023.145-.1.272-.17.349-.195 1.421-1.18 1.421-1.306 0-.062.057-.16.127-.217a.448.448 0 0 0 .127-.307c0-.11.038-.201.085-.201.046 0 .084-.133.084-.296 0-.394-.222-.394-.508 0-.116.16-.276.292-.354.294-.08 0-.167.04-.196.087-.029.046-.126.084-.217.084-.09 0-.164.038-.164.085 0 .047-.042.085-.093.085-.05 0-.194.07-.317.156-.329.229-.543.27-1.622.316-.673.03-1.17.002-1.609-.084-.905-.18-1.137-.237-1.185-.295-.08-.096-.617-.257-.696-.209-.198.123.284 1.541.606 1.781.073.054.37.164.662.243.292.078.551.177.577.218.025.041.263.08.528.085.265.006.596.04.736.075.373.095.534.095.593 0zm-16.704 62.031c-.232-.324-.27-.456-.315-1.116-.028-.412-.068-.776-.088-.809-.02-.033.021-.34.093-.683l.233-1.102c.056-.264.13-.509.165-.544.035-.034.063-.202.063-.371 0-.192.064-.378.17-.49.093-.1.169-.217.169-.259 0-.137.525-1.067.773-1.37.506-.616.796-.92.883-.926.05-.003.174-.084.278-.18.352-.328.997-.035.661.3-.079.08-.205.265-.28.412a4.38 4.38 0 0 1-.414.612c-.279.344-.6.88-.91 1.518-.091.186-.199.405-.24.485a.701.701 0 0 0-.074.248c0 .055-.054.16-.121.234a.858.858 0 0 0-.163.36 1.723 1.723 0 0 1-.147.422c-.135.252-.219 1.934-.096 1.934.048 0 .11.18.136.402.125 1.013.124 1.07-.019 1.179-.264.2-.482.127-.757-.256zm-1.246-1.157c-.244-.092-.482-.382-.607-.743-.15-.432-.14-1.371.017-1.58a.727.727 0 0 0 .125-.374c0-.246.13-.676.347-1.154.085-.187.25-.56.366-.83a4.05 4.05 0 0 1 .47-.802c.14-.172.256-.35.256-.397 0-.047.171-.244.381-.44.21-.195.381-.395.381-.446 0-.05.059-.091.13-.091.169 0 .632-.342.632-.466 0-.052.155-.183.345-.29.19-.106.365-.246.39-.311.056-.147.63-.16.772-.017.176.177.113.306-.3.612a7.848 7.848 0 0 0-.537.428c-.074.07-.177.129-.23.129-.052 0-.133.07-.18.158-.046.087-.314.439-.595.783-.282.344-.512.667-.512.718 0 .05-.07.157-.157.235-.087.079-.226.294-.31.479-.083.185-.183.336-.223.336-.04 0-.072.129-.072.286 0 .157-.059.335-.13.395-.3.248-.464.815-.47 1.624-.004.432.02.944.053 1.138.074.436-.081.717-.342.62zm37.026-23.411c-.03-.03-.311-.071-.624-.091a4.491 4.491 0 0 1-.941-.162c-.205-.07-.427-.126-.494-.126-.166 0-.732-.326-.862-.496-.313-.412.082-.8.508-.5.184.13.44.18 1.123.223.486.03.95.028 1.032-.004.08-.032.337-.062.57-.066.282-.005.494-.063.635-.174.117-.09.297-.166.4-.167.291-.003 1.12-.427 1.225-.627.051-.099.274-.389.493-.645.359-.417.651-.905.915-1.524.05-.117.116-.56.146-.986.055-.772.02-.955-.307-1.574a.717.717 0 0 1-.078-.275c0-.07-.038-.128-.084-.128-.047 0-.085-.057-.085-.127s-.133-.275-.296-.455c-.163-.18-.297-.35-.297-.378 0-.082-.842-.848-1.133-1.03a17.344 17.344 0 0 1-.931-.677c-.808-.622-1.07-.79-1.246-.799-.074-.003-.204-.082-.288-.175-.084-.093-.22-.17-.303-.17-.24 0-.417-.093-.417-.22 0-.065-.076-.118-.17-.118-.092 0-.168-.038-.168-.085 0-.046-.078-.085-.172-.085-.095 0-.409-.12-.699-.267-.29-.147-.64-.291-.78-.32-.195-.04-.347-.189-.654-.642-.22-.325-.401-.633-.403-.684 0-.052.17-.202.38-.335.209-.132.38-.272.38-.31 0-.039.086-.108.19-.154.38-.167.784-.443.907-.62.069-.1.274-.315.455-.478.344-.308.793-.954.975-1.402.17-.42.015-1.7-.253-2.082-.086-.124-.157-.277-.157-.341 0-.287-1.307-1.642-1.905-1.976-.995-.555-1.885-.972-2.073-.972a.38.38 0 0 1-.217-.07c-.045-.04-.257-.136-.473-.215-.215-.08-.46-.22-.542-.31a.542.542 0 0 0-.344-.167c-.106 0-.217-.038-.246-.085-.029-.046-.127-.084-.22-.084a.842.842 0 0 1-.372-.135c-.112-.073-.241-.111-.286-.084-.045.028-.304-.01-.575-.084a4.562 4.562 0 0 0-1.02-.13c-.29.002-.55-.034-.577-.078-.027-.045-.16-.082-.294-.082-.134 0-.268-.038-.296-.085-.067-.108-1.021-.11-1.222-.003-.11.06-.169.229-.211.614-.06.54-.208.998-.324.998-.035 0-.064.076-.064.17 0 .092-.028.169-.063.17-.074 0-.275.408-.275.556 0 .054-.058.147-.127.205a.393.393 0 0 0-.127.264c0 .087-.077.235-.17.328-.093.093-.17.223-.17.287 0 .224-.252.607-.865 1.309-.63.723-1.15 1.149-1.514 1.24-.113.028-.334.183-.491.344-.26.266-.27.292-.104.292.125 0 .18.052.18.171 0 .256-.464 1.105-.758 1.388-.141.136-.257.298-.257.36s-.034.113-.075.113c-.041 0-.093.07-.116.157-.022.087-.272.344-.554.572-.282.227-.516.452-.52.5-.006.1-.186.218-.936.615-.303.16-.57.316-.593.346-.023.03-.147.108-.275.174-.128.066-.233.151-.233.19 0 .039-.113.07-.251.07-.165 0-.282.059-.342.17a.35.35 0 0 1-.3.169.885.885 0 0 0-.357.08c-.081.045-.28.136-.443.204l-.572.236c-.151.063-.275.143-.275.178s-.074.064-.164.064c-.09 0-.187.036-.214.08-.074.119-.603.17-2.247.219-.815.024-1.52.048-1.566.054-.176.022-2.217-.194-2.563-.272a3.66 3.66 0 0 0-.656-.081c-.162 0-.295-.034-.295-.075 0-.042-.124-.096-.275-.12-.981-.158-1.905-.44-2.178-.664-.162-.133-.372-.243-.466-.245-.094-.002-.32-.131-.504-.288-.284-.243-.36-.271-.529-.194-.108.049-.196.137-.196.195 0 .058-.124.222-.276.364l-.684.643c-.225.211-.439.384-.476.384-.037 0-.119.061-.181.136-.062.076-.312.228-.554.339-.243.11-.492.251-.553.312-.062.06-.303.206-.536.323-.233.116-.5.253-.593.303-.093.05-.274.134-.402.186-.128.052-.319.133-.423.18-.105.046-.42.119-.699.161-1.188.18-2.213.373-2.375.447-.188.086-1.952.047-2.366-.053a3.6 3.6 0 0 1-.466-.15c-.116-.05-.288-.119-.38-.154-1.053-.395-1.37-.578-1.883-1.089-.48-.478-.563-.53-.727-.451-.102.048-.309.139-.46.2-.151.063-.275.142-.275.177 0 .036-.095.064-.21.064-.308 0-.912.254-1.07.45-.11.135-.256.174-.72.191-.604.022-1.39.156-1.683.287-.417.186-1.224.218-3.46.136-.875-.032-1.467-.02-1.527.03-.054.045-.303.09-.552.102-.385.018-.478-.009-.611-.173-.087-.107-.158-.228-.158-.268 0-.146.459-.369.88-.427.238-.033.71-.119 1.047-.19a11.86 11.86 0 0 1 1.221-.178c.334-.026.648-.082.7-.124.05-.043.339-.087.64-.1.303-.011.588-.048.635-.08.091-.063.3-.106 1.397-.288.976-.162 1.186-.209 1.362-.303.083-.044.265-.08.406-.08.14 0 .362-.043.492-.096.67-.269 1.006-.383 1.338-.452.14-.03.444-.143.677-.252.233-.11.576-.265.762-.347 1.19-.523 1.945-.954 2.126-1.212.07-.1.177-.182.237-.182s.213-.095.339-.211c.125-.117.269-.212.318-.212.05 0 .214-.105.366-.233.151-.128.42-.347.596-.487.68-.538 1.103-.921 1.235-1.118.075-.113.287-.346.472-.517a4.46 4.46 0 0 0 .525-.587c.12-.174.26-.275.383-.275.25 0 .527.295.414.443l-.57.727c-.269.34-.47.639-.446.662.131.131 1.408-.935 1.417-1.183.002-.055.112-.226.245-.381.168-.196.3-.274.432-.254.273.04.394.265.273.51-.152.308-.21.576-.125.576.107 0 .526-.396.526-.497 0-.045.099-.2.22-.343.275-.327.597-.35.71-.05.054.14.124.193.21.16.147-.056.173-.249.045-.328-.126-.078-.104-.694.027-.744.155-.06.43.18.609.532.498.98.662 1.27.715 1.27.026 0 .2.133.386.295.36.314 2.062 1.225 2.308 1.235.08.003.26.08.4.169.342.217.617.333.79.333.078 0 .313.054.523.12.21.067.59.165.846.218.257.054.542.128.635.165.234.093.814.236 1.57.386 1.071.213 4.586.086 5.67-.206.162-.043.486-.127.72-.185.232-.058.537-.175.676-.26.14-.083.33-.153.424-.153.093 0 .434-.134.757-.297.323-.162.632-.296.687-.296.054 0 .239-.095.41-.211.172-.117.377-.212.457-.212.08 0 .269-.077.421-.17.153-.093.334-.169.403-.169.068 0 .124-.038.124-.084 0-.047.059-.085.13-.085a.209.209 0 0 0 .179-.127c.026-.07.093-.127.148-.127.122 0 1.016-.842.957-.901-.06-.06-.512.183-.647.345a.412.412 0 0 1-.278.133c-.092 0-.28.095-.42.211-.138.117-.296.212-.35.212-.055 0-.227.12-.382.265-.257.241-.294.253-.416.131s-.1-.167.253-.514c.212-.21.4-.42.416-.466.026-.076 1.081-1.236 1.956-2.152.174-.182.317-.384.317-.448s.076-.164.17-.222c.093-.059.17-.145.17-.192 0-.047.133-.252.296-.457.163-.204.295-.423.295-.485s.128-.314.285-.56c.156-.245.445-.75.642-1.122.197-.373.386-.697.421-.72.036-.024.135-.281.221-.572.086-.291.188-.53.226-.53.037 0 .068-.068.068-.152 0-.084.039-.19.086-.238.047-.048.14-.35.207-.673.067-.323.147-.702.178-.841.03-.14.075-.521.098-.847.024-.326.078-.637.122-.691.05-.062.047-.119-.009-.153-.049-.03-.089-.318-.089-.64 0-.515-.104-1.007-.331-1.564-.192-.47-.262-.632-.469-1.091-.232-.515-.232-.696 0-.785.23-.089.529.147.753.597.118.238.306.604.417.813.546 1.03.753 1.756.796 2.794.02.49.07.93.11.98.083.102-.059 1.123-.175 1.264-.044.053-.043.142.003.214a.82.82 0 0 1 .08.357c0 .222.02.233.407.233.224 0 .45-.044.505-.098.075-.076.306-.074.97.005.479.057 1.004.14 1.167.184.163.044.582.12.931.168l.974.135c.186.027.376.075.423.108.047.033.256.112.466.176.21.063.478.182.597.263.12.082.33.176.466.21.137.034.382.138.545.231.163.093.588.313.945.489.356.176.672.359.702.407.03.048.202.128.384.177.188.05.493.244.706.447l.745.707c.62.585 1.28 1.503 1.48 2.063.026.07.081.194.125.274.043.081.078.509.078.95 0 .813-.06 1.015-.476 1.61a.676.676 0 0 0-.117.318c0 .083-.04.15-.09.15-.133 0-.753.534-.755.65 0 .056-.072.123-.158.15-.087.028-.268.163-.403.3-.134.138-.288.251-.34.253-.053 0-.147.064-.21.14-.187.225-.734.54-.942.541a.783.783 0 0 0-.39.154l-.196.152.366.115c.202.063.403.146.447.185.044.038.185.07.313.07.127 0 .254.036.28.08.028.043.23.104.45.134.22.03.562.127.76.216.197.09.411.162.476.162s.166.06.226.131c.06.072.317.226.571.342.254.117.585.306.735.42.15.114.338.208.417.208.08 0 .323.163.542.363.22.199.503.415.631.48.128.064.29.205.362.314.071.109.182.198.246.198.182 0 1.234 1.084 1.234 1.27 0 .047.038.084.085.084.047 0 .085.048.085.107s.076.154.169.212c.093.059.17.167.17.24 0 .075.06.275.135.445.075.17.17.395.212.5.041.104.112.276.155.38.066.157.16.939.182 1.503.012.312-.123 1.195-.189 1.235-.04.025-.072.12-.072.21s-.038.164-.085.164c-.047 0-.085.068-.085.152 0 .23-.197.608-.317.61a.11.11 0 0 0-.106.112c0 .126-1.228 1.327-1.356 1.327-.046 0-.084.029-.084.064-.001.035-.172.138-.381.23-.21.092-.38.189-.38.215 0 .025-.105.093-.233.15a5.854 5.854 0 0 0-.445.225c-.427.245-1.919.556-2.048.426zm-46.424-4.647c-.373-.202-.69-.43-.706-.51-.027-.137-.038-.137-.19.001-.156.14-.174.137-.415-.1-.14-.135-.372-.493-.518-.796a59.605 59.605 0 0 0-.34-.697.685.685 0 0 1-.074-.238c0-.05-.115-.212-.254-.36-.14-.15-.254-.294-.254-.323 0-.028-.133-.219-.296-.423-.268-.337-.407-.838-.232-.838.035 0 .102-.085.148-.19.066-.148.148-.188.37-.177.23.011.389.12.825.562.297.301.74.65.984.773s.501.257.571.296c.29.163.57.253.89.286.186.02.772.1 1.301.18.53.078 1.026.117 1.101.085.076-.031.5-.09.942-.128 1.236-.11 1.793-.2 2.116-.345.163-.073.468-.2.678-.28.21-.081.447-.182.528-.224a.729.729 0 0 1 .275-.076c.07 0 .128-.038.128-.084 0-.047.044-.085.098-.085.054 0 .215-.086.36-.192.144-.106.376-.249.516-.318s.304-.173.366-.231c.061-.059.29-.226.508-.373.217-.146.472-.332.565-.413.515-.447.826-.138.411.41-.302.397-1.279 1.371-1.376 1.371-.041 0-.251.162-.467.36a4.99 4.99 0 0 1-1.34.886c-.176.082-.318.178-.318.213 0 .036-.052.065-.114.065-.063 0-.184.077-.27.171-.085.095-.366.233-.625.309-.446.13-.534.164-.938.367-.092.046-.357.084-.587.084-.231 0-.443.038-.472.085-.029.047-.148.085-.265.085a.99.99 0 0 0-.397.1 2.225 2.225 0 0 1-.523.163c-.654.121-1.203.368-1.436.647-.133.16-.308.273-.413.271-.101-.002-.488-.168-.86-.37zm1.94-.61c.074-.028.114-.083.09-.123-.025-.04-.097-.052-.16-.028-.168.065-1.458-.127-1.861-.276a8.226 8.226 0 0 1-.673-.29c-.407-.203-.546-.208-.369-.012.075.082.357.22.627.306s.567.184.66.22c.516.193.719.238 1.115.246.24.005.498-.014.571-.043zm-20.524-4.52c-.103-.144-.22-.17-.76-.17-.35-.002-.79-.055-.976-.12-.297-.103-.341-.152-.364-.41-.022-.256.006-.305.231-.399.142-.058.306-.087.365-.065.177.068 2.725-.11 2.812-.196.044-.044.394-.08.778-.08s.722-.038.75-.084c.03-.047.161-.085.294-.085.132 0 .387-.074.566-.164.18-.09.469-.187.643-.215.175-.029.318-.085.318-.126 0-.041.12-.1.269-.133.207-.046.294-.025.38.094.109.147.113.147.113-.002 0-.21.242-.38.55-.383.14-.002.368-.073.508-.158s.358-.18.485-.212.424-.172.66-.311c.505-.298 1.1-.354 1.098-.105-.001.261-1.494 1.695-2.052 1.973-.278.137-.577.25-.665.25-.089 0-.161.033-.161.075 0 .063-.596.396-.655.366a1.99 1.99 0 0 0-.338.127c-.326.14-.865.255-1.547.33-.21.023-.462.082-.562.131-.108.054-.606.077-1.247.06-.8-.023-1.078-.005-1.108.075-.061.158-.247.128-.385-.064zm-4.36-1.637c-.233-.048-.443-.112-.466-.14-.07-.087-.71-.378-.856-.39-.135-.01-1.095-.45-1.176-.539-.063-.069-.343-.234-.677-.4a2.939 2.939 0 0 1-.617-.468c-.177-.177-.354-.321-.394-.321-.156 0-1.866-1.703-2.286-2.278-.592-.808-1.106-1.613-1.106-1.731 0-.063-.076-.182-.17-.267-.092-.084-.169-.225-.169-.312a.782.782 0 0 0-.122-.347 1.241 1.241 0 0 1-.156-.399 2.144 2.144 0 0 0-.083-.339c-.027-.07-.133-.393-.235-.72-.103-.325-.22-.628-.26-.672-.042-.045-.075-.772-.075-1.617 0-1.186.029-1.594.125-1.787.069-.138.12-.383.114-.545-.006-.161.05-.426.123-.587a3.02 3.02 0 0 0 .188-.645c.03-.192.118-.42.197-.508a2.23 2.23 0 0 0 .262-.39c.066-.129.152-.233.19-.233.04 0 .071-.05.071-.111 0-.062.116-.222.257-.358.206-.198.286-.228.402-.155.209.131.227.356.047.568-.3.352-.396.611-.479 1.283-.105.865-.138 2.491-.05 2.545.037.023.092.222.121.442a4.81 4.81 0 0 0 .474 1.563c.041.08.075.223.075.315s.076.304.17.47c.092.165.168.39.168.5 0 .109.053.242.118.296.065.054.168.22.228.37s.236.429.39.62c.154.191.28.377.28.414 0 .056.327.452.81.981.067.074.122.173.122.219 0 .046.104.133.233.193.237.111.437.215.74.383.093.051.378.292.632.535.255.243.496.441.537.441.04 0 .23.134.42.297.207.176.437.296.57.296.129 0 .365.118.557.278.406.338 1.25.752 2.026.992.186.058.375.139.419.18.044.04.32.074.615.074.294 0 .6.033.681.074.311.157.767.265 1.127.266.206 0 .536.057.733.126.36.125.414.122 1.695-.098.439-.076.699.024.699.269 0 .12-.05.21-.116.21-.063 0-.206.07-.317.157-.111.087-.317.18-.456.207-.14.026-.426.092-.635.145-.612.154-1.964.234-2.647.157-.278-.032-.432-.012-.496.065-.163.197-.6.37-.934.37-.18 0-.326.037-.326.084 0 .106-.75.09-1.312-.028zm9.485-9.268c-.032-.033-.923-.063-1.978-.066-1.056-.004-2.129-.05-2.385-.102a86.212 86.212 0 0 0-1.016-.199c-.303-.057-.598-.152-.657-.21-.059-.06-.288-.134-.508-.167-.22-.032-.492-.13-.603-.217-.111-.086-.248-.157-.304-.157-.055 0-.41-.162-.788-.36-.686-.36-1.881-1.355-1.881-1.568 0-.06-.115-.221-.254-.358-.278-.27-.35-.677-.122-.677.137 0 .47.153.545.25.023.03.192.167.376.304.183.138.42.336.525.44.106.105.236.191.29.191.107 0 1.197.504 1.264.584.08.096.465.253.762.31.163.032.398.13.521.217.124.088.293.159.375.159.083 0 .277.038.432.085l.556.166c.483.143 4.683.224 6.202.12 1.005-.068 1.042-.073 1.108-.138.035-.035.321-.064.637-.064.315 0 .597-.038.626-.084.028-.047.202-.085.386-.085.183 0 .333-.03.333-.066 0-.037.181-.115.402-.174 1.271-.34 1.39-.437.535-.437-.33 0-.598.034-.598.075 0 .042-.124.096-.275.12-.152.026-.462.087-.69.137-.45.098-.644.025-.644-.244 0-.205.296-.325.932-.378.684-.056 1.188-.13 1.354-.197a7.47 7.47 0 0 1 .762-.166l.911-.163c.152-.027.297-.084.323-.125.025-.041.12-.075.21-.075.093 0 .165-.058.165-.133 0-.111-.084-.124-.53-.08a97.93 97.93 0 0 1-1.26.11c-.487.04-.785.107-.89.198-.1.088-.217.116-.322.078-.097-.036-.344.004-.592.094-.516.19-.671.195-.809.029-.241-.291.338-.596 1.27-.668.35-.027.73-.074.847-.103.116-.03.364-.073.55-.095.187-.023.377-.07.424-.106.046-.035.291-.07.544-.077.253-.008.5-.046.55-.086.05-.04.31-.09.578-.11.527-.042.622-.086.525-.242-.045-.074-.24-.085-.706-.042l-.822.075a.662.662 0 0 0-.314.128c-.078.065-.183.084-.246.045-.133-.083-1.261-.041-1.38.05-.046.037-.198.088-.338.115-.14.026-.355.073-.48.103-.184.046-.252.014-.375-.173-.145-.221-.144-.232.014-.326.153-.09.548-.163 1.476-.272.21-.025.457-.08.55-.121a2.46 2.46 0 0 1 .55-.119c.657-.073 1.017-.15 1.065-.229.025-.041.156-.075.29-.075.135 0 .267-.037.295-.082.058-.094-.649-.075-2.536.068-1.12.086-1.283.081-1.397-.035-.116-.119-.104-.152.119-.332.2-.162.378-.208.931-.242.376-.022 1.064-.1 1.53-.17a41.678 41.678 0 0 1 1.379-.19c.328-.036.52-.094.5-.152-.041-.125-1.472-.155-1.773-.037-.174.068-.265.065-.358-.012-.127-.105-.485-.089-1.399.066-.721.122-1.068-.095-.693-.434.106-.096.44-.167 1.08-.228a103 103 0 0 0 1.603-.17c.372-.044.906-.104 1.185-.134l.508-.054-.423-.115c-.546-.148-2.19-.168-3.006-.036-.847.137-1.228.099-1.228-.123 0-.21.326-.373.96-.48l.755-.127c.186-.032.275-.095.275-.194 0-.206-.092-.273-.225-.163-.082.069-.144.069-.225.002-.082-.067-.306-.061-.826.022-.773.123-1.126.066-1.08-.176.052-.265.496-.438 1.145-.445.334-.003.632-.044.66-.09.03-.047.27-.088.535-.09.646-.007 1.22-.114.99-.184-.398-.122-1.49-.164-1.612-.063-.084.07-.159.076-.23.02-.058-.047-.296-.067-.529-.046-1.532.142-1.566.14-1.566-.086 0-.263.256-.368 1.058-.435 1.568-.131 2.242-.299 1.723-.43-.252-.062-2.363.001-2.803.086-.263.05-.317.037-.317-.08 0-.27.39-.555.758-.555.239 0 .343-.037.343-.12 0-.086-.15-.132-.53-.161-.29-.023-.735-.06-.988-.084-.26-.024-.522-.003-.605.05-.112.07-.2.056-.373-.057-.208-.137-.217-.163-.105-.333a.57.57 0 0 1 .367-.212c.134-.015.28-.063.324-.106.045-.043.242-.078.44-.078.197 0 .38-.034.405-.075.052-.083 1.32-.06 1.906.035.207.033.503.132.659.22.155.087.362.159.458.159.158 0 .357.072 1.005.367.116.053.394.202.618.33.223.129.448.234.499.234.11 0 .661.55.661.658 0 .041.095.164.212.273.116.11.211.23.211.268 0 .068.084.178.527.692.127.148.274.382.326.522.17.451.224.589.314.804.444 1.056.271 2.541-.413 3.556-.078.117-.137.24-.13.273.006.033-.055.138-.137.233-.081.096-.148.192-.148.214 0 .072-.285.39-.9 1.005-.585.586-1.643 1.243-1.995 1.24-.079 0-.167.037-.195.083-.03.047-.143.085-.254.085-.111 0-.224.035-.25.077-.026.043-.21.103-.407.134-.405.064-.88.196-1.099.307a.824.824 0 0 1-.313.075c-.09 0-.186.033-.211.074-.026.041-.304.106-.619.143-.315.037-.649.082-.742.1-.093.017-.512.05-.931.071-.42.022-.839.074-.932.115-.252.113-.691.174-.759.106zm12.998-3.017c-.424-.234-1.454-1.177-1.426-1.305.007-.03-.028-.15-.077-.267-.314-.75-.353-1.3-.159-2.228.077-.366.208-.688.36-.883l.282-.364c.023-.03.138-.079.256-.108.313-.076.474.2.303.517-.227.42-.305.8-.3 1.448.006.577.04.706.325 1.237.175.326.413.646.528.71.242.137.321.106 1.136-.456 1.08-.745 1.343-.89 1.618-.89.222 0 .458-.115.818-.401.269-.215.456-.236.665-.078.097.074.117.147.064.23-.111.177-.097.439.023.4.056-.02.162-.144.236-.276a1.54 1.54 0 0 1 .364-.414c.215-.16.24-.162.37-.032.128.128.13.174.01.546-.07.224-.11.456-.087.516.057.15.226.08.262-.108.057-.29.31-.48.559-.418.288.072.355.242.23.575-.08.21-.075.283.025.383.108.108.134.094.211-.109.049-.127.088-.287.088-.355 0-.194.39-.334.66-.237.19.069.225.126.202.333-.014.138-.062.286-.105.33-.114.116-.098.301.026.3.059 0 .202-.178.318-.395.278-.52.443-.62.675-.41.098.088.159.21.136.269-.1.26.145.178.447-.149.285-.308.363-.349.583-.305.148.03.305.008.376-.05.15-.126.577-.705.577-.782 0-.031.054-.177.12-.323.192-.431.245-.736.245-1.41 0-1.273-.32-1.854-1.486-2.693a6.467 6.467 0 0 1-.586-.472 7.015 7.015 0 0 0-.727-.55c-.544-.365-.624-.504-.401-.689.185-.153.872-.042 1.057.17.08.094.204.17.273.17.07 0 .267.095.439.212.171.116.33.211.355.211.023 0 .165.115.313.255.15.14.336.275.415.3.08.026.318.283.53.572.212.288.423.57.47.627a.427.427 0 0 1 .084.232c0 .072.038.131.084.131.047 0 .085.05.085.113 0 .119.456.564.577.564.281 0 .715.913.86 1.81.07.427.058.545-.085.841-.092.19-.167.389-.167.442 0 .168-.286.368-.731.512-.29.093-.472.213-.565.37-.24.406-1.028 1.19-1.196 1.19a.564.564 0 0 0-.316.14.883.883 0 0 1-.43.167c-.93.094-1.215.14-1.287.209-.044.042-.28.077-.523.077-.376 0-.55-.063-1.175-.424-.403-.233-.765-.423-.805-.423-.04 0-.123-.048-.187-.106-.196-.18-.48-.317-.657-.317-.094 0-.17-.038-.17-.084 0-.09-.472-.067-.566.028-.03.03-.135.057-.232.058-.097 0-.272.076-.388.167-.117.091-.28.166-.362.167-.082.001-.3.098-.485.214-.184.116-.412.212-.506.212-.094 0-.171.038-.171.084 0 .047-.086.086-.19.087-.106 0-.287.076-.403.167-.14.11-.345.167-.609.168-.218 0-.42.04-.45.086-.072.118-.383.1-.63-.036zm-25.016-.479a3.109 3.109 0 0 0-.424-.377c-.097-.064-.247-.26-.334-.437a5.682 5.682 0 0 0-.474-.824c-.09-.137-.19-.456-.222-.71-.068-.548.01-1.534.133-1.656.047-.048.086-.19.086-.319 0-.127.038-.255.085-.284.046-.029.084-.164.084-.301 0-.137.038-.25.085-.25.047 0 .085-.071.085-.16 0-.088.057-.182.127-.209.07-.026.127-.1.127-.165s.343-.466.763-.892c.716-.727.784-.775 1.11-.775.32 0 .344.016.297.19-.028.106-.052.22-.052.255-.001.035-.042.063-.092.063-.101 0-1.007.936-1.009 1.043 0 .038-.097.194-.213.347-.185.243-.212.362-.212.962 0 .377-.042.793-.093.924-.17.431-.02 2.058.19 2.058.036 0 .09.143.122.318.037.21.168.426.385.638.382.374.404.499.119.686-.293.191-.392.173-.673-.125zm1.179-1.401c-.147-.147-.118-.602.065-1.047.048-.116.103-.307.122-.423.019-.117.07-.225.113-.24a.128.128 0 0 0 .08-.112c0-.072.38-.628.51-.749.026-.023.288-.366.583-.762.733-.983 1.533-1.725 2.2-2.039.209-.098.5-.27.647-.382.147-.112.32-.205.386-.206a.627.627 0 0 0 .283-.127c.351-.266.795-.05.585.283-.045.071-.382.34-.749.595-.367.256-.914.707-1.216 1.001-.302.295-.58.536-.616.536-.07 0-.481.403-1.034 1.011-.425.469-1.07 1.394-1.074 1.541-.006.26-.323 1.019-.472 1.132-.206.156-.247.155-.413-.012zm26.288-3.16c-.649-.2-1.404-.823-1.46-1.203-.055-.377.099-.523.493-.469.6.083 1.262.24 1.344.32a.383.383 0 0 0 .232.078c.255 0 .492.27.492.56 0 .202-.075.335-.3.532-.306.27-.43.298-.801.183zm-37.003-.423c-.516-.053-.886-.204-1.68-.686-.486-.294-1.195-1.113-1.195-1.38 0-.21.348-.17.571.064.151.16.317.213.804.262.977.097 2.264.079 2.816-.04.46-.098.972-.357 1.044-.528.016-.037.078-.067.139-.067.06 0 .247-.152.416-.338.168-.187.326-.339.352-.339.025 0 .15-.096.275-.213.398-.371.479-.267.497.637.018.902-.02.998-.612 1.581-.52.511-1.6.98-2.45 1.062a6.028 6.028 0 0 1-.977-.015zm-1.61-2.709c-.382-.116-1.609-.865-1.737-1.06-.272-.415.189-.728.514-.35.104.121.217.22.251.22s.167.075.295.166c.452.322.98.436 2.062.445 1.007.008 2.194-.18 2.31-.369.025-.04.099-.072.164-.072s.315-.116.555-.258c.24-.142.456-.24.478-.218.022.022.287-.205.59-.504.425-.422.605-.544.798-.544.148 0 .27.053.3.131.071.186-.22.7-.521.922l-.792.583c-.296.218-.609.396-.696.396-.087 0-.294.076-.46.169-.166.093-.386.17-.49.172a.702.702 0 0 0-.351.127c-.13.099-.462.123-1.609.117-.794-.004-1.542-.037-1.66-.073zm9.911-.372c0-.267.776-1.06 1.291-1.32.221-.11.402-.23.402-.267 0-.076.831-.48 1.016-.494 1.147-.083 2.285-.091 2.477-.017.495.193.18.764-.357.646-.132-.03-.262-.02-.287.022-.026.042-.24.08-.477.085-.237.005-.55.07-.694.142-.146.072-.298.131-.34.131-.041 0-.157.077-.257.17-.1.093-.253.17-.34.17-.195 0-1.021.26-1.08.34-.023.032-.186.11-.363.173a1.7 1.7 0 0 0-.483.266c-.24.223-.508.198-.508-.047zm27.955-.131c-.082-.05-.078-.116.016-.298.14-.268.43-.558.558-.558.049 0 .088-.035.088-.078s.2-.14.445-.218c.244-.076.53-.175.635-.218.912-.376 1.143-.416 2.468-.422 1.112-.005 1.318.014 1.456.14.089.08.161.191.161.248 0 .24-.272.318-1.166.338-1.031.023-1.78.113-1.847.221-.025.04-.226.074-.447.074-.382 0-.742.14-1.493.583-.311.184-.734.274-.874.188zm-22.908-.169c-.12-.132-.131-.2-.055-.341.051-.097.149-.177.215-.177.067 0 .257-.076.423-.169.166-.093.431-.17.59-.17.157 0 .48-.044.717-.099.392-.09.442-.085.554.064.068.09.125.208.126.262.003.114-.46.366-.67.366a.365.365 0 0 0-.22.077c-.044.042-.353.118-.686.169-.333.05-.66.113-.725.138-.066.025-.187-.029-.27-.12zm-14.657-.857c-.023-.037-.238-.137-.477-.224-.789-.283-1.694-1.494-1.81-2.42-.055-.446.1-1.308.304-1.693a.668.668 0 0 0 .078-.243c0-.128.618-1.38.698-1.417.036-.015.064-.075.064-.132 0-.132 1.752-1.829 1.889-1.829.057 0 .255-.133.44-.296.186-.163.443-.343.571-.402.128-.058.233-.127.233-.154 0-.026.133-.1.296-.164.163-.064.297-.15.297-.19 0-.16.46-.487.684-.487.13 0 .26-.038.29-.085.028-.047.132-.085.23-.085.097 0 .295-.088.439-.196.228-.171.99-.553 2.336-1.17.21-.096.447-.21.528-.25a.82.82 0 0 1 .318-.077c.093 0 .17-.029.17-.064.001-.105.508-.36.719-.36.108 0 .343-.072.522-.161.723-.36 1.158-.524 1.33-.506.1.011.328-.044.509-.122.18-.078.408-.142.508-.143.198-.001.778-.188.87-.28.031-.031.15-.057.263-.057.114 0 .326-.051.473-.114.708-.3 1.15-.43 1.537-.45.437-.021 1.075-.162 1.332-.293a.727.727 0 0 1 .269-.075c.067 0 .239-.098.382-.219.221-.186.261-.279.263-.614.003-.467.147-.69.443-.69.214 0 .926.322.98.444.015.035.14.063.275.063.136 0 .247.038.247.083 0 .046.105.108.233.14.128.03.278.09.334.134.134.106.469.052.513-.083.02-.059-.234-.364-.564-.678-.691-.658-.75-.86-.326-1.125.357-.222.841-.16 1.25.162.643.507 1.287.683 1.71.468.314-.16.466-.147.956.085.47.221.805.486.805.636 0 .053.095.248.211.432.117.185.212.355.212.379 0 .023.067.12.148.215.169.197.453.664.67 1.1.08.163.17.315.198.338.149.125.414.6.533.955.075.223.214.504.31.625.305.39.185.791-.238.791-.258 0-.773-.382-.777-.576-.003-.184-.075-.27-.865-1.026-.69-.66-.961-.79-.422-.202.816.89 1.085 1.3.999 1.523-.049.127-1.276.163-1.352.04-.025-.04-.399-.097-.831-.128-.432-.03-.881-.08-.998-.109a2.609 2.609 0 0 0-.592-.037 65.4 65.4 0 0 1-.95.033l-.567.016-.025.379c-.023.344-.049.385-.295.455-.18.051-.28.138-.297.257-.021.15-.074.175-.322.152-.163-.015-.36-.072-.437-.127-.078-.055-.474-.34-.88-.636-.406-.295-.876-.6-1.044-.676a1.957 1.957 0 0 1-.475-.31 2.901 2.901 0 0 0-.402-.321c-.15-.097-.233-.224-.233-.359 0-.203-.015-.208-.5-.172-.274.02-.641.096-.814.168-.174.073-.399.132-.5.132-.103 0-.346.077-.541.172a3.209 3.209 0 0 1-.605.221.839.839 0 0 0-.393.21c-.08.087-.213.16-.296.16-.083 0-.175.037-.203.084-.03.046-.162.084-.296.084-.23 0-1.22.372-1.393.523-.045.038-.169.07-.276.07-.107 0-.194.038-.194.085 0 .046-.093.085-.207.085-.114 0-.23.038-.259.084-.029.047-.117.085-.196.085-.078 0-.252.058-.385.127a1.12 1.12 0 0 1-.402.127c-.088 0-.16.029-.16.064s-.124.114-.275.175a5.431 5.431 0 0 0-.422.19.71.71 0 0 1-.277.079c-.072 0-.28.095-.465.212-.185.116-.376.211-.425.211-.128 0-.77.336-.91.476a.44.44 0 0 1-.259.119c-.078 0-.237.076-.354.167-.116.091-.253.167-.304.168-.051 0-.162.078-.246.17-.084.094-.2.17-.257.17-.057 0-.15.057-.208.126-.057.07-.137.106-.177.082-.094-.058-.755.28-.755.386 0 .045-.136.138-.301.207-.491.205-.8.464-.8.67 0 .104-.031.225-.07.27-.038.043-.118.234-.177.422-.132.424-.016.943.267 1.191.533.466 1.778.732 2.52.537a5.95 5.95 0 0 1 .805-.14c.232-.023.46-.076.503-.118.045-.042.197-.08.339-.084.297-.008.947-.334.913-.46-.013-.045-.095-.083-.183-.083s-.189-.029-.224-.064c-.035-.034-.338-.063-.672-.063-.573 0-.78.055-1.405.374-.264.134-.5.035-.5-.21 0-.177.338-.359 1.155-.625.501-.163 1.316-.136 1.856.062.405.148.521.09.791-.39.201-.358.22-.55.07-.738-.154-.193-.77-.368-1.049-.297a5.405 5.405 0 0 1-.62.1c-.21.022-.465.08-.567.131-.232.115-.475-.092-.435-.37.021-.144.122-.21.45-.295a3.6 3.6 0 0 1 .652-.111c.125-.001.251-.04.28-.086.065-.105.586-.112.785-.01.08.042.242.119.358.17.417.187.692.394.8.602.386.742.47.922.47 1.01 0 .161-.688 1.022-.817 1.022-.156 0-.55.252-.69.443-.061.082-.166.15-.233.15s-.122.03-.122.068c0 .099-.556.389-1.101.575-.256.088-.487.189-.514.224-.075.103-2.637.106-2.83.003-.094-.05-.354-.178-.58-.286-.434-.207-.902-.694-.902-.937 0-.08-.038-.169-.085-.198-.046-.028-.085-.314-.085-.635 0-.32.039-.606.085-.635.112-.069.109-.211-.004-.211-.236 0-.71.449-.95.901-.247.468-.262.548-.262 1.427 0 .787.03.994.19 1.34.218.47.537.816.9.979.14.062.32.148.402.19.081.04.514.113.962.159.844.088 1.825 0 1.88-.169.017-.047.099-.086.184-.086.135 0 .521-.164 1.059-.45.576-.306.897-.49 1.283-.731.24-.15.507-.26.593-.244.23.045.206.43-.034.535-.105.046-.191.132-.191.19 0 .06-.051.107-.114.107-.062 0-.183.077-.267.17-.084.093-.195.17-.246.171-.05.001-.188.076-.304.167-.117.092-.256.167-.31.168-.053 0-.295.135-.537.298-.242.163-.492.296-.556.296-.064 0-.26.081-.435.18-.533.299-1.169.419-2.156.407-.505-.006-.937-.042-.96-.079zm19.847-.278c-.583-.392-.359-.737.48-.737.416 0 .544-.029.544-.122 0-.07-.1-.133-.232-.148-.233-.027-.375-.288-.217-.398.042-.028.166-.185.277-.348.258-.38.399-.515.764-.734a29.82 29.82 0 0 1 1.44-.79c.151-.07.435-.217.794-.415.571-.313 1.462-.505 2.659-.573.649-.037.84-.018 1.1.108.173.084.339.147.368.139.03-.008.121.06.204.151.083.092.192.166.243.167.05 0 .216.116.368.258.288.27.376.707.18.902-.131.132-.06.214.385.436.214.106.426.264.472.35.107.2.023.425-.157.421-.16-.003-.93-.262-1.103-.37-.41-.258-3.273-.058-4.116.287-.093.038-.35.15-.57.247-.222.098-.477.178-.567.178-.091 0-.19.038-.218.084-.029.047-.136.086-.238.088a.698.698 0 0 0-.35.127.693.693 0 0 1-.355.124c-.104 0-.214.038-.242.085-.03.046-.136.085-.238.086-.102.001-.28.077-.397.168-.117.09-.27.167-.339.17a.66.66 0 0 0-.291.129c-.222.167-.312.157-.648-.07zm2.215-1.164c.17-.09.228-.41.079-.433-.234-.035-.282-.02-.302.098-.011.07-.048.193-.08.275-.068.17.054.194.303.06zm4.948-1.389c.727-.013.888-.063.888-.278 0-.172-.243-.446-.395-.446a.66.66 0 0 1-.275-.1c-.123-.077-.298-.075-.76.008l-.602.107v.314c0 .353.142.55.336.464.071-.031.435-.062.808-.069zm9.63 2.183c-.247-.1 0-.996.305-1.108a.484.484 0 0 0 .182-.109c.023-.031.294-.23.603-.44.561-.382 1.25-.619 1.71-.586.13.009.393-.025.582-.076.244-.066.37-.066.434-.002.05.05.198.09.33.09.134 0 .42.129.659.297.232.163.46.296.51.296.048 0 .113.066.144.147.03.08.163.236.293.346.262.22.305.447.114.606-.1.082-.173.068-.373-.075-.137-.097-.31-.177-.384-.177-.074 0-.135-.034-.135-.076 0-.078-.508-.159-1.355-.216-.533-.036-1.585.1-1.655.215-.027.042-.15.078-.276.079a.86.86 0 0 0-.44.167c-.116.092-.252.167-.303.168-.05 0-.194.116-.318.256-.214.24-.387.295-.627.198zm-20.778-.748c-.018-.018-.337-.038-.708-.044-.669-.012-1.833-.309-2.58-.658-.312-.146-1.31-.893-1.419-1.062a.765.765 0 0 0-.233-.191c-.21-.115-1.037-1.107-1.149-1.379-.091-.223.023-.434.234-.434.068 0 .465.34.884.755s.902.817 1.074.894c.171.076.458.213.637.303.18.09.391.165.47.165.08 0 .181.034.225.076.044.042.347.096.673.12a8.9 8.9 0 0 1 1.016.138c.233.051.738.095 1.122.097.609.003.71.025.789.171.07.131.048.254-.096.552-.102.21-.228.396-.28.411-.212.063-.628.118-.659.086zm30.883-.225c-.2-.286-.04-.495.38-.495.417 0 .67-.124.67-.329 0-.23-.264-.427-.466-.347-.209.082-1.058.898-1.058 1.017 0 .047-.096.13-.213.183-.313.142-.634-.048-.634-.377 0-.199.13-.37.668-.879.708-.67 1.272-1.124 1.397-1.128.073-.002 1.201-.513 1.511-.684a.845.845 0 0 1 .343-.08c.108 0 .232-.035.276-.076.044-.042.328-.098.631-.124a46.27 46.27 0 0 0 1.03-.104c1.208-.139 2.39.51 2.875 1.58.116.255.288.456.504.59.821.507.849 1.276.032.889a3.698 3.698 0 0 0-.74-.225 21.745 21.745 0 0 1-.822-.173c-.512-.121-.89-.122-1.98-.004-.693.075-.951.137-1.042.249-.088.108-.134.12-.166.043-.064-.155-.321-.13-.671.068-.17.095-.371.165-.447.156a.976.976 0 0 0-.375.08c-.13.053-.263.092-.296.086-.126-.021-.617.122-.66.193-.096.154-.616.078-.747-.109zm6.455-1.934c-.39-.374-.694-.516-1.203-.562-.52-.047-.606.003-.668.4-.065.412.042.58.277.434.096-.06.21-.087.253-.06.043.026.373.067.734.09.36.024.673.061.696.083.022.023.075.006.117-.037.047-.046-.034-.184-.206-.348zm-35.631 1.779c-.104-.067-.108-.108-.021-.232.058-.083.14-.23.183-.327.042-.097.204-.277.36-.4.155-.122.349-.28.43-.352.082-.071.169-.13.194-.13.053 0 .22-.13.517-.402.114-.105.277-.19.362-.19a.41.41 0 0 0 .271-.141c.226-.275.78-.621.997-.625.121-.002.352-.116.513-.254.188-.16.388-.25.556-.25a.828.828 0 0 0 .426-.125.835.835 0 0 1 .423-.127c.142 0 .294-.035.339-.075.044-.04.318-.121.61-.181.29-.06.528-.143.528-.185 0-.042.143-.07.318-.062.174.008.416-.025.537-.074.132-.053.757-.076 1.585-.058.806.019 1.386-.002 1.415-.05.118-.189.428-.074.584.217.088.163.202.296.254.296.166 0 .726.515.726.667 0 .191-.163.35-.361.35-.087 0-.393-.11-.682-.245-.865-.404-1.172-.47-2.09-.451-.827.017-2.317.19-2.408.278-.045.043-.17.079-.277.079a.9.9 0 0 0-.343.074c-.244.125-.55.24-.951.356-.453.132-1.264.505-1.736.797a6.3 6.3 0 0 1-.465.268.508.508 0 0 0-.194.168c-.036.06-.207.17-.38.246a4.484 4.484 0 0 0-.442.217c-.07.044-.194.102-.276.13-.081.027-.148.077-.148.112 0 .108-.931.764-1.083.763a.607.607 0 0 1-.271-.082zm23.625-1.733c-.175-.186-.19-.26-.14-.699.049-.425.127-.73.36-1.4.027-.082.084-.149.125-.149.041 0 .075-.076.075-.169 0-.093.038-.17.085-.17.046 0 .084-.04.084-.09 0-.15.628-1.003.741-1.007.058-.002.106-.041.106-.088 0-.046.074-.084.165-.084.218 0 .47.511.363.732l-.217.439c-.078.155-.142.329-.142.386 0 .057-.066.178-.148.268-.22.243-.327.525-.437 1.138-.081.45-.152.6-.39.825-.16.152-.324.276-.363.276-.04 0-.16-.094-.267-.208zm3.691-.343a.39.39 0 0 1-.006-.238c.048-.125.744-.726 1.009-.872.094-.051.438-.244.763-.43.326-.184.727-.386.89-.45a3.05 3.05 0 0 0 .52-.268.939.939 0 0 1 .442-.155c.12 0 .353-.076.52-.169a1.44 1.44 0 0 1 .584-.17 1.9 1.9 0 0 0 .604-.133c.224-.094.463-.12.794-.088.26.026.568.047.684.048.117 0 .288.034.381.076.093.04.322.123.508.184.186.06.539.242.783.404.454.302.563.543.343.763-.123.123-.46.134-.533.017-.029-.047-.111-.085-.183-.085-.071 0-.236-.075-.365-.168-.31-.22-1.502-.362-2.035-.24-.744.17-1.06.256-1.205.332a.807.807 0 0 1-.312.076c-.091 0-.187.034-.212.075-.026.041-.217.1-.426.132-.21.031-.403.093-.43.136-.027.044-.142.08-.256.08-.114 0-.207.032-.207.07 0 .04-.085.11-.19.16-.603.279-.998.458-1.359.616-.223.098-.427.234-.453.301-.064.167-.589.164-.653-.004zm-30.068-4.106c-.029-.047-.13-.085-.225-.085-.277 0-.664-.323-.664-.556 0-.122-.05-.206-.121-.206-.067 0-.148-.083-.18-.185-.044-.136-.008-.226.13-.339.203-.164.553-.204.634-.073.027.044.22.105.428.136.208.032.379.091.379.132 0 .042.058.075.128.075.139 0 .434.151.61.312.173.158.128.31-.145.493-.14.093-.254.217-.254.275 0 .128-.642.147-.72.021zm15.83-.597c-.03-.05-.29-.202-.577-.34a10.097 10.097 0 0 1-.775-.411c-.711-.45-1.451-.757-1.678-.698-.038.01-.24-.097-.449-.238-.208-.14-.45-.256-.535-.256-.175 0-.43-.34-.426-.569.002-.13-.148-.467-.746-1.675a1.308 1.308 0 0 0-.229-.339.647.647 0 0 1-.159-.26 1.1 1.1 0 0 0-.206-.338 2.3 2.3 0 0 1-.292-.46c-.078-.163-.372-.538-.653-.834-.281-.297-.511-.565-.511-.597 0-.101.198-.262.322-.262.065 0 .303-.166.53-.37.386-.347.843-.538 1.022-.427.044.027.278-.008.52-.078.243-.07.652-.167.908-.216l.72-.14c.139-.03.396-.073.571-.097.175-.025.34-.079.365-.12.026-.042.247-.076.49-.076.245 0 .484-.04.533-.089.049-.049.333-.11.63-.135.298-.026.608-.081.688-.124.08-.043.432-.081.783-.085.351-.004.66-.04.686-.083.026-.042.31-.077.63-.077s.603-.033.628-.074c.025-.04.342-.116.704-.167 1.264-.179 1.663-.21 3.868-.307.618-.027 1.144-.09 1.21-.143.086-.072.166-.07.319.013.14.075.317.088.568.042.2-.037 1.009-.078 1.796-.091a427.46 427.46 0 0 0 2.286-.045c.514-.013 1.03.025 1.295.094.34.089.57.095 1.016.027.379-.059.612-.06.681-.005.07.055.292.048.657-.021.363-.069.588-.076.657-.021.058.045.276.112.486.149.365.063.594.082 2.201.18.396.023.756.078.8.121.045.043.302.079.572.079.27 0 .491.033.491.074 0 .04.181.096.402.124.908.115 1.99.4 2.497.658.179.092.572.1.574.012.001-.035.136-.212.3-.394.273-.304.313-.322.498-.223.11.06.27.236.355.394.175.326.28.362.345.116.047-.181.363-.304.574-.223.07.027.128.147.128.266 0 .13.102.318.254.466.225.22.254.304.254.75 0 .425.032.533.21.701.274.26.29.851.037 1.336-.126.242-.153.378-.094.482.08.145.036.8-.06.88-.028.023-.234.423-.458.888-.55 1.144-.52 1.098-.705 1.126-.237.036-1.216-.43-1.216-.58 0-.044-.046-.07-.101-.059-.15.032-.186-.267-.062-.5.082-.153.085-.225.01-.3-.113-.113-1.09-.109-1.235.005a1.027 1.027 0 0 1-.348.123c-.14.026-.425.088-.635.138-.773.183-1.646.324-1.753.283-.06-.023-.11-.137-.11-.253 0-.247.24-.787.349-.787.041 0 .075-.065.075-.143 0-.079.081-.23.18-.336.1-.106.224-.264.276-.35.267-.451.73-1.095.888-1.238.21-.188.243-.558.051-.558-.198 0-.485.186-.718.466-.116.14-.336.381-.487.538-.152.156-.48.575-.73.931-.421.602-.54.819-.82 1.5-.098.236-.237.354-.813.69-.265.154-.548-.093-.48-.42l.295-.646c.077-.123.07-.197-.03-.34-.152-.216-.212-.16-.443.414-.276.686-.342.802-.554.973-.115.093-.23.163-.254.156-.024-.008-.093.026-.153.076-.147.122-.478-.058-.6-.326-.12-.265-.181-.253-.432.085-.278.375-.595.552-.833.465-.163-.06-.185-.131-.185-.584 0-.303.055-.621.133-.773.073-.141.111-.28.085-.306-.062-.061-.055-.07-.42.505-.168.265-.306.523-.306.572a.78.78 0 0 1-.085.259l-.17.336a.8.8 0 0 0-.084.281c0 .063-.184.31-.41.552-.296.317-.471.438-.636.438-.229 0-.852-.346-1.05-.583-.143-.172-.133-.711.022-1.081.07-.167.127-.359.127-.425 0-.067.114-.243.253-.392.14-.149.254-.334.254-.412 0-.078.096-.255.212-.394.117-.138.212-.282.212-.32 0-.037.173-.231.385-.432.317-.3.443-.364.713-.364.18 0 .342.046.36.101.04.12-.118.49-.21.491-.034 0-.063.071-.063.157 0 .086-.076.225-.169.31-.093.084-.17.189-.17.233 0 .08-.2.569-.345.845a.712.712 0 0 0-.073.296c.004.121.031.11.148-.059a9.59 9.59 0 0 1 .44-.56c.387-.46.605-.757.765-1.044.173-.31.668-.897 1.405-1.665.48-.5.653-.628.847-.626.283.003.58.2.5.33-.097.158.11.097.225-.066.06-.086.32-.39.576-.677.471-.526.766-.653.993-.426.07.07.16.048.347-.085.291-.207.378-.218.605-.077.139.087.197.073.372-.092l.208-.195.177.177c.097.097.177.263.178.367.002.357.123.444.368.265.12-.087.22-.187.22-.222.007-.134.546-.055.87.127l.338.19.244-.293c.24-.288.312-.544.175-.629-.066-.04-.55-.132-1.666-.314a25.936 25.936 0 0 0-2.836-.328 36.56 36.56 0 0 1-1.778-.161 28.67 28.67 0 0 0-1.905-.137c-.699-.03-1.321-.07-1.384-.09a.27.27 0 0 0-.197.013c-.045.029-1.118.065-2.384.08-1.269.016-2.86.088-3.547.161-.686.073-1.429.132-1.651.132-.385 0-1.346.171-1.645.293-.077.031-.165.016-.195-.033-.067-.107-.44-.122-.503-.02-.025.039-.208.08-.408.09-.68.037-.955.074-1.167.156-.117.045-.539.086-.939.091-.4.005-.83.049-.958.097a1.863 1.863 0 0 1-.547.088c-.174 0-.358.042-.41.093-.05.051-.335.093-.63.093-.296 0-.576.03-.623.066-.077.061-.438.138-.973.206a1.962 1.962 0 0 0-.424.116c-.296.125-1.354.358-1.608.355-.32-.004-1.439.37-1.44.48 0 .106.188.199.41.202.077 0 .236.076.352.167.117.091.296.166.398.168.102 0 .206.035.231.076.026.042.152.094.28.118.357.064.808.256.991.421.09.082.232.148.315.148.082 0 .332.103.555.227.223.125.483.268.577.318.384.202.605.459.908 1.052.174.342.317.667.317.722 0 .055.077.154.17.221.093.068.169.171.169.23 0 .06.035.11.078.11s.143.2.222.444c.08.244.178.48.218.525.107.115.087.49-.034.639-.163.2-.534.36-.707.306-.115-.036-.225.032-.395.245-.246.308-.35.357-.443.206zm-13.96-.154c-.026-.041-.248-.173-.494-.293s-.531-.297-.633-.392c-.102-.095-.22-.173-.261-.173-.177 0-1.108-.95-1.159-1.183-.077-.353.079-.595.384-.595.138 0 .251.029.252.064 0 .035.157.138.348.23.191.091.366.215.39.275.022.06.18.174.35.253.169.08.584.334.921.567.461.318.614.472.614.618 0 .107-.038.195-.084.195-.047 0-.085.035-.085.079s.133.058.296.031c.276-.044.297-.032.297.175 0 .176-.041.223-.195.223a.481.481 0 0 1-.296-.102c-.08-.079-.125-.079-.204 0-.118.118-.376.135-.442.028z"
      style="fill:#F9F8E9;stroke-width:.08466667" transform="translate(-177.096 -177.413)" />
</svg>