<svg xmlns="http://www.w3.org/2000/svg" class="css-1j8o68f" viewBox="0 0 395.263 36">
    <path fill="#fff"
        d="M0 17.078C0 4.829 0 0 6.146 0c4.522 0 5.751 2.766 6.059 9.395H8.122c-.176-4.785-.659-5.883-1.976-5.883-2.02 0-2.02 2.151-2.02 13.566 0 12.687 0 14.531 2.02 14.531 1.449 0 1.888-1.097 1.976-6.76h4.127c-.264 8.121-1.361 11.15-6.103 11.15C0 36 0 31.127 0 17.079zM15.322 35.56V.439h4.39v14.927h4.39V.439h4.39V35.56h-4.39V18.878h-4.39V35.56h-4.39zm17.341-18.483V.438h4.39v16.64c0 12.687 0 14.531 2.195 14.531s2.195-1.844 2.195-14.531V.438h4.39v16.64c0 14.048 0 18.922-6.585 18.922s-6.585-4.874-6.585-18.922zM50.004 35.56V.439h7.112c4.522 0 6.059 2.766 6.059 8.078 0 4.785-.57 7.507-1.932 8.824v.264c1.142.395 1.493 2.458 1.932 7.595l.878 10.36h-4.39l-.57-10.36c-.308-5.225-1.098-6.322-2.416-6.322h-2.282V35.56h-4.39zm4.39-20.195h2.722c1.537 0 1.976-1.537 1.976-6.85 0-3.467-.658-4.565-1.976-4.565h-2.721v11.415zm12.732 1.712c0-12.249 0-17.078 6.146-17.078 4.522 0 5.752 2.766 6.059 9.395h-4.083c-.176-4.785-.659-5.883-1.976-5.883-2.02 0-2.02 2.151-2.02 13.566 0 12.687 0 14.531 2.02 14.531 1.45 0 1.888-1.097 1.976-6.76h4.127c-.264 8.121-1.361 11.15-6.103 11.15-6.146 0-6.146-4.873-6.146-18.921zM82.448 35.56V.439h4.39v14.927h4.39V.439h4.39V35.56h-4.39V18.878h-4.39V35.56h-4.39z" />
    <path xmlns="http://www.w3.org/2000/svg" fill="#fff"
        d="M164.407 8.88c-3.627 0-5.776 2.284-7.389 5.373-1.612 3.09-1.88 7.523-5.776 7.523-2.462 0-3.58.044-5.775.044-1.569 0-4.5-3.223-6.381-6.895-2.1-4.1-4.053-7.522-6.739-7.522-2.955 0-10.12.134-11.865.134s-2.937-.568-3.121-1.769c-.045-.29.004-.718.079-.963.144-.476.397-.805.042-.805-.569 0-.979.692-1.3 1.432-.337.781-.132 1.661-.043 2.016.313 1.253 1.342 2.238 2.865 2.641 2.857.756 4.297.672 5.64 2.195.64.725 1.479 2.641 3.09 6.805 1.613 4.164 4.836 10.344 8.328 10.344h.493v2.85l-.76.015c-1.656.037-6.415.19-8.497.19-.45 0-.773.135-.773.37 0 .134.067.302.471.302.626 0 28.77-.016 31.815-.013 3.82.005 6.342-2.517 5.575-5.714-.221-.92-.666-1.669-1.279-2.148-.588-.46-.895-.563-1.022-.385-.141.198.19.282.628.877a4.9 4.9 0 0 1 .548.991c.3.712.435 1.381.12 2.396-.25.807-1.056 1.875-2.148 2.42-.852.426-1.602.613-4.195.614-.308 0-1.548.045-2.209.05v-2.834c2.08-.148 4.81-2.827 5.279-6.699.31-2.555.6-4.97.805-7.791.158-2.172 1.478-4.653 3.157-5.138.695-.2 1.193-.01 1.444.437.303.537-.369.739-.369 1.41 0 .772.426 1.142 1.108 1.142.493 0 1.288-.268 1.288-1.477 0-1.557-1.389-2.418-3.134-2.418zm-31.411 2.06a1.186 1.186 0 1 1 0-2.373 1.186 1.186 0 0 1 0 2.373zm2.037 2.128a.996.996 0 1 1 0-1.992.996.996 0 0 1 0 1.992zm18.812 16.364v2.82c-1.853.015-4.802-.03-7.648 0v-2.82h7.648zm-8.657 0v2.829c-2.911.033-5.642-.025-7.648.008v-2.837h7.648z" />
    <path fill="#fff"
        d="M188.005 17.078c0-12.249.263-17.078 6.848-17.078s6.849 4.83 6.849 17.078c0 14.048-.263 18.922-6.849 18.922s-6.848-4.874-6.848-18.922zm4.39 0c0 12.687 0 14.531 2.458 14.531s2.459-1.844 2.459-14.531c0-11.415 0-13.566-2.459-13.566s-2.458 2.151-2.458 13.566zm13.258 18.483V.439h9.22V3.95h-4.83v13.17h3.952v3.513h-3.952V35.56h-4.39zm21.073-10.713h4.434c.088 5.664.527 6.761 2.107 6.761 2.152 0 2.152-1.8 2.152-6.585 0-7.024-8.693-5.137-8.693-14.488 0-5.487 0-10.536 6.585-10.536 4.874 0 6.19 2.766 6.498 9.395h-4.39c-.176-4.785-.703-5.883-2.108-5.883-2.15 0-2.15 2.37-2.15 7.024 0 6.805 8.736 4.39 8.736 14.488 0 6.146 0 10.976-6.63 10.976-5.092 0-6.278-3.03-6.54-11.152zm16.683 10.713V17.12c0-12.248 0-17.077 6.585-17.077s6.585 4.829 6.585 17.078V35.56h-4.39V25.463h-4.39v10.098h-4.39zm4.39-13.61h4.39v-4.83c0-11.414 0-13.565-2.195-13.565S247.8 5.707 247.8 17.122v4.829zm13.17 13.61V.439h3.952l5.751 21.512-.044-.44V.44h4.39v35.12h-3.95l-5.752-19.317.044.439V35.56h-4.39zm16.683-31.17V.438h13.171V4.39h-4.39v31.17h-4.39V4.39h-4.39zm15.805 31.17V17.12c0-12.248 0-17.077 6.585-17.077s6.586 4.829 6.586 17.078V35.56h-4.39V25.463h-4.39v10.098h-4.39zm4.39-13.61h4.39v-4.83c0-11.414 0-13.565-2.195-13.565s-2.195 2.151-2.195 13.566v4.829zm22.39-4.873c0-12.249 0-17.078 6.147-17.078 4.522 0 5.75 2.766 6.058 9.395h-4.083c-.175-4.785-.658-5.883-1.975-5.883-2.02 0-2.02 2.151-2.02 13.566 0 12.687 0 14.531 2.02 14.531 1.448 0 1.887-1.097 1.975-6.76h4.127c-.263 8.121-1.361 11.15-6.102 11.15-6.147 0-6.147-4.873-6.147-18.921zM335.56 35.56V.439h4.39V31.17h5.708v4.39H335.56zm12.732 0V17.12c0-12.248 0-17.077 6.585-17.077s6.585 4.829 6.585 17.078V35.56h-4.39V25.463h-4.39v10.098h-4.39zm4.39-13.61h4.39v-4.83c0-11.414 0-13.565-2.195-13.565s-2.195 2.151-2.195 13.566v4.829zm12.951-4.873V.438h4.39v16.64c0 12.687 0 14.531 2.195 14.531s2.195-1.844 2.195-14.531V.438h4.39v16.64c0 14.048 0 18.922-6.585 18.922s-6.585-4.874-6.585-18.922zm16.463 7.77h4.434c.088 5.664.527 6.761 2.108 6.761 2.15 0 2.15-1.8 2.15-6.585 0-7.024-8.692-5.137-8.692-14.488 0-5.487 0-10.536 6.586-10.536 4.873 0 6.19 2.766 6.497 9.395h-4.39c-.176-4.785-.703-5.883-2.107-5.883-2.152 0-2.152 2.37-2.152 7.024 0 6.805 8.737 4.39 8.737 14.488 0 6.146 0 10.976-6.63 10.976-5.092 0-6.277-3.03-6.54-11.152z" />
</svg>