<svg xmlns="http://www.w3.org/2000/svg" version="1.1" xmlns:xlink="http://www.w3.org/1999/xlink" xmlns:svgjs="http://svgjs.com/svgjs" width="512" height="512" x="0" y="0" viewBox="0 0 512 512" style="enable-background:new 0 0 512 512" xml:space="preserve" class=""><g>
<path xmlns="http://www.w3.org/2000/svg" style="" d="M397.725,52.542h-283.45l-44.26,76.351l0,0V500.58c0,6.307,5.113,11.42,11.42,11.42h349.129  c6.307,0,11.42-5.113,11.42-11.42V128.893L397.725,52.542z" fill="#fff9f0" data-original="#fff9f0"></path>
<path xmlns="http://www.w3.org/2000/svg" style="" d="M353.465,307.964c-9.419-3.038-20.678-5.036-35.472-5.036c-61.996,0-61.996,35.038-123.992,35.038  c-61.993,0-61.993-35.038-123.986-35.038V500.58c0,6.307,5.113,11.42,11.42,11.42h272.03L353.465,307.964L353.465,307.964z" fill="#5bdcfd" data-original="#5bdcfd"></path>
<path xmlns="http://www.w3.org/2000/svg" style="" d="M353.465,128.893V512h77.099c6.307,0,11.42-5.113,11.42-11.421V128.893H353.465z" fill="#e5d8c6" data-original="#e5d8c6"></path>
<path xmlns="http://www.w3.org/2000/svg" style="" d="M392.488,0H119.512c-2.892,0-5.237,2.345-5.237,5.237v85.481h283.45V5.237  C397.725,2.345,395.381,0,392.488,0z" fill="#5bdcfd" data-original="#5bdcfd"></path>
<path xmlns="http://www.w3.org/2000/svg" style="" d="M392.488,0h-49.087v90.717h54.323V5.237C397.725,2.345,395.381,0,392.488,0z" fill="#48c7e5" data-original="#48c7e5"></path>
<polygon xmlns="http://www.w3.org/2000/svg" style="" points="397.725,52.542 114.275,52.542 70.015,128.893 441.985,128.893 " fill="#b0effe" data-original="#b0effe" class=""></polygon>
<g xmlns="http://www.w3.org/2000/svg">
	<polygon style="" points="441.985,128.893 397.725,52.542 353.465,128.893  " fill="#f3e8d6" data-original="#f3e8d6"></polygon>
	<rect x="299.28" y="128.89" style="" width="54.19" height="383.11" fill="#f3e8d6" data-original="#f3e8d6"></rect>
</g>
<path xmlns="http://www.w3.org/2000/svg" style="" d="M299.278,512h54.187V307.964c-9.418-3.038-20.678-5.036-35.472-5.036  c-6.964,0-13.14,0.445-18.715,1.23L299.278,512L299.278,512z" fill="#48c7e5" data-original="#48c7e5"></path>
<polygon xmlns="http://www.w3.org/2000/svg" style="" points="343.538,52.542 299.278,128.893 353.465,128.893 397.725,52.542 " fill="#5bdcfd" data-original="#5bdcfd"></polygon>
<g xmlns="http://www.w3.org/2000/svg">
	<path style="" d="M156.723,237.226c-1.011,1.84-2.575,2.392-4.048,2.392s-2.945-0.552-3.956-2.392l-10.581-19.873   v40.298c0,2.484-3.036,3.772-5.98,3.772c-3.036,0-5.981-1.288-5.981-3.772v-57.503c0-4.416,2.945-5.98,5.981-5.98   c4.324,0,6.256,0.92,9.292,6.348l11.317,20.608l11.317-20.608c3.036-5.428,5.06-6.348,9.384-6.348c3.036,0,5.981,1.564,5.981,5.98   v57.503c0,2.484-3.036,3.772-5.981,3.772c-3.036,0-5.98-1.288-5.98-3.772v-39.563L156.723,237.226z" fill="#f9662b" data-original="#f9662b"></path>
	<path style="" d="M190.492,197.848c0-2.575,2.945-3.679,5.981-3.679c2.944,0,5.98,1.104,5.98,3.679v59.804   c0,2.484-3.036,3.772-5.98,3.772c-3.036,0-5.981-1.288-5.981-3.772V197.848z" fill="#f9662b" data-original="#f9662b"></path>
	<path style="" d="M218.739,261.424c-2.668,0-5.244-1.288-5.244-3.772v-59.804c0-2.575,2.945-3.679,5.981-3.679   c2.944,0,5.98,1.104,5.98,3.679v53.087h22.449c2.392,0,3.589,2.576,3.589,5.244c0,2.576-1.197,5.244-3.589,5.244h-29.166V261.424z" fill="#f9662b" data-original="#f9662b"></path>
	<path style="" d="M258.028,197.848c0-2.575,2.945-3.679,5.981-3.679c2.944,0,5.98,1.104,5.98,3.679v25.118   l19.873-27.049c0.921-1.288,2.025-1.748,3.312-1.748c3.036,0,6.901,3.128,6.901,6.164c0,0.644-0.092,1.472-0.736,2.3   l-16.469,20.609l20.057,30.545c0.46,0.644,0.644,1.38,0.644,2.116c0,2.944-3.68,5.98-7.176,5.98c-1.564,0-3.128-0.644-4.14-2.3   l-17.297-26.222l-4.968,6.257v18.033c0,2.484-3.036,3.772-5.98,3.772c-3.036,0-5.981-1.288-5.981-3.772v-59.803H258.028z" fill="#f9662b" data-original="#f9662b"></path>
</g>
<g xmlns="http://www.w3.org/2000/svg">
</g>
<g xmlns="http://www.w3.org/2000/svg">
</g>
<g xmlns="http://www.w3.org/2000/svg">
</g>
<g xmlns="http://www.w3.org/2000/svg">
</g>
<g xmlns="http://www.w3.org/2000/svg">
</g>
<g xmlns="http://www.w3.org/2000/svg">
</g>
<g xmlns="http://www.w3.org/2000/svg">
</g>
<g xmlns="http://www.w3.org/2000/svg">
</g>
<g xmlns="http://www.w3.org/2000/svg">
</g>
<g xmlns="http://www.w3.org/2000/svg">
</g>
<g xmlns="http://www.w3.org/2000/svg">
</g>
<g xmlns="http://www.w3.org/2000/svg">
</g>
<g xmlns="http://www.w3.org/2000/svg">
</g>
<g xmlns="http://www.w3.org/2000/svg">
</g>
<g xmlns="http://www.w3.org/2000/svg">
</g>
</g></svg>